SplineFontDB: 3.0
FontName: N-Noten
FullName: Noten
FamilyName: N
Weight: Standard
Copyright: Copyright 2011-2012 Florian Kretlow
UComments: "2011-5-24: Created." 
Version: 0
ItalicAngle: 0
UnderlinePosition: -100
UnderlineWidth: 50
Ascent: 800
Descent: 200
sfntRevision: 0x00000000
LayerCount: 2
Layer: 0 0 "Back"  1
Layer: 1 0 "Zeichenebene"  0
XUID: [1021 201 23757 16427]
FSType: 0
OS2Version: 0
OS2_WeightWidthSlopeOnly: 0
OS2_UseTypoMetrics: 1
CreationTime: 1306259327
ModificationTime: 1409118019
OS2TypoAscent: 0
OS2TypoAOffset: 1
OS2TypoDescent: 0
OS2TypoDOffset: 1
OS2TypoLinegap: 90
OS2WinAscent: 0
OS2WinAOffset: 1
OS2WinDescent: 0
OS2WinDOffset: 1
HheadAscent: 0
HheadAOffset: 1
HheadDescent: 0
HheadDOffset: 1
OS2Vendor: 'PfEd'
MarkAttachClasses: 1
DEI: 91125
Encoding: UnicodeBmp
UnicodeInterp: none
NameList: Adobe Glyph List
DisplaySize: -72
AntiAlias: 1
FitToEm: 1
WinInfo: 0 8 6
Grid
-500 -513 m 0
 -500 -487 l 0
 1480 -487 l 0
 1480 -513 l 0
 -500 -513 l 0
-500 -263 m 0
 -500 -237 l 0
 1480 -237 l 0
 1480 -263 l 0
 -500 -263 l 0
-500 487 m 0
 -500 513 l 0
 1480 513 l 0
 1480 487 l 0
 -500 487 l 0
-500 237 m 0
 -500 263 l 0
 1480 263 l 0
 1480 237 l 0
 -500 237 l 0
26 1300 m 4
 26 -700 l 1028
-500 -13 m 0
 -500 13 l 0
 1480 13 l 0
 1480 -13 l 0
 -500 -13 l 0
EndSplineSet
BeginChars: 65536 97

StartChar: H
Encoding: 72 72 0
Width: 292
Flags: HMW
VStem: 0 26<-185 -172.178 24.9267 75> 245 37<-585.294 -349.061>
LayerCount: 2
Fore
SplineSet
41 -193 m 0
 32 -193 25 -200 25 -206 c 0
 0 -206 l 0
 0 62 l 1
 26 62 l 1
 26 30 40 -19 73 -60 c 0
 145 -151 292 -253 292 -468 c 0
 292 -574 253 -665 234 -700 c 1
 206 -686 l 1
 232 -633 258 -556 258 -467 c 0
 258 -351 204 -267 131 -219 c 0
 101 -200 72 -193 41 -193 c 0
EndSplineSet
EndChar

StartChar: J
Encoding: 74 74 1
Width: 292
Flags: HMW
LayerCount: 2
Back
SplineSet
0 88 m 5
 26 88 l 21
 26 40 63 -1 128 -49 c 4
 209 -109 292 -198 292 -316 c 4
 292 -371 275 -412 262 -435 c 5
 238.437 -409.5 l 5
 247.624 -385.957 259 -353.955 259 -315 c 4
 259 -242 213 -168 127 -127 c 4
 104 -116 72 -108 42 -108 c 4
 33 -108 26 -114 26 -120 c 4
 26 -120 11 -120 0 -120 c 29
 0 88 l 5
EndSplineSet
Fore
SplineSet
0 88 m 1
 26 88 l 17
 26 40 63 -1 128 -49 c 0
 209 -109 292 -198 292 -316 c 0
 292 -371 275 -412 262 -435 c 1
 238.437 -409.5 l 1
 247.624 -385.957 259 -353.955 259 -315 c 0
 259 -242 213 -168 127 -127 c 0
 104 -116 72 -108 42 -108 c 0
 33 -108 26 -114 26 -120 c 0
 26 -120 11 -120 0 -120 c 25
 0 88 l 1
EndSplineSet
EndChar

StartChar: M
Encoding: 77 77 2
Width: 292
Flags: HW
VStem: 0 26<-160 -147.312 18.5 75> 258 34<-500.351 -278.092>
LayerCount: 2
Back
SplineSet
258 -376 m 0
 258 -422 252 -452 248 -481 c 0
 244 -511 269 -518 276 -496 c 0
 282 -477 292 -428 292 -377 c 0
 292 -113 44 -76 34 41 c 0
 32 66 33 77 15 77 c 0
 1 77 0 69 0 59 c 0
 0 -196 l 0
 30 -196 l 0
 30 -160 33 -147 55 -147 c 0
 83 -147 118 -158 148 -175 c 0
 216 -213 258 -272 258 -376 c 0
EndSplineSet
Fore
SplineSet
242 -503 m 1
 248 -474 258 -422 258 -376 c 0
 258 -272 216 -213 148 -175 c 0
 118 -158 75 -147 41 -147 c 0
 32 -147 25 -154 25 -160 c 1
 0 -160 l 1
 0 75 l 1
 26 75 l 17
 26 33 47 -2 63 -20 c 0
 131 -99 292 -164 292 -377 c 0
 292 -428 279 -490 272 -512 c 1
 242 -503 l 1
EndSplineSet
EndChar

StartChar: grave
Encoding: 96 96 3
Width: 275
Flags: HMW
LayerCount: 2
Fore
SplineSet
41 193 m 4
 68 193 95 200 125 219 c 0
 198 267 241 351 241 467 c 0
 241 556 215 633 189 686 c 1
 217 700 l 1
 236 665 275 574 275 468 c 0
 275 253 145 151 73 60 c 0
 40 19 26 -30 26 -62 c 1
 0 -62 l 1
 0 206 l 0
 25 206 l 4
 25 200 32 193 41 193 c 4
EndSplineSet
EndChar

StartChar: c
Encoding: 99 99 4
Width: 275
Flags: HMW
HStem: 99 21G<0 27>
VStem: 0 27<108 120 -88 -41> 242 33<234 398>
LayerCount: 2
Fore
SplineSet
242 571 m 0
 242 658 214 730 198 767 c 1
 227 778 l 1
 244 748 275 659 275 572 c 0
 275 515 267 466 251 423 c 1
 263 399 275 362 275 316 c 0
 275 198 205 112 126 49 c 0
 63 -1 26 -40 26 -88 c 1
 0 -88 l 1
 0 335 l 1
 25 335 l 1
 25 329 32 322 41 322 c 0
 171 322 242 448 242 571 c 0
26 120 m 0
 26 114 33 108 42 108 c 0
 67 108 98 116 121 127 c 0
 207 168 242 242 242 315 c 0
 242 339 238 361 232 380 c 1
 207 334 172 294 126 259 c 0
 68 214 26 165 26 120 c 0
EndSplineSet
EndChar

StartChar: e
Encoding: 101 101 5
Width: 275
Flags: HMW
VStem: 0 26<147 160 -75 -18> 241 34<271 500>
LayerCount: 2
Fore
SplineSet
225 503 m 1
 255 512 l 1
 262 490 275 428 275 377 c 0
 275 164 131 99 63 20 c 0
 47 2 26 -33 26 -75 c 9
 0 -75 l 1
 0 160 l 1
 25 160 l 1
 25 154 32 147 41 147 c 0
 75 147 112 158 142 175 c 0
 210 213 241 272 241 376 c 0
 241 422 231 474 225 503 c 1
EndSplineSet
EndChar

StartChar: uni0080
Encoding: 128 128 6
Width: 218
Flags: HMW
LayerCount: 2
Fore
SplineSet
41 203 m 4
 68 203 97 223 115 245 c 0
 155 296 184 365 184 467 c 0
 184 556 168 632 151 688 c 1
 181 698 l 1
 193 660 218 574 218 468 c 0
 218 311 170 219 121 142 c 0
 87 89 26 12 26 -62 c 5
 0 -62 l 1
 0 216 l 0
 25 216 l 4
 25 210 32 203 41 203 c 4
EndSplineSet
EndChar

StartChar: uni0082
Encoding: 130 130 7
Width: 218
Flags: HMW
HStem: 99 21G<0 27>
VStem: 0 27<108 120 -88 -41> 242 33<234 398>
LayerCount: 2
Fore
SplineSet
0 -119 m 1
 0 100 l 25
 26 100 l 0
 26 90 33 83 42 83 c 0
 58 83 76 87 98 99 c 0
 159 133 185 184 185 246 c 0
 185 298 167 337 155 360 c 1
 177 387 l 1
 192 365 218 309 218 247 c 0
 218 143 175 86 102 12 c 0
 45 -45 26 -85 26 -119 c 1
 0 -119 l 1
EndSplineSet
EndChar

StartChar: uni0083
Encoding: 131 131 8
Width: 218
Flags: HMW
HStem: 99 21G<0 27>
VStem: 0 27<108 120 -88 -41> 242 33<234 398>
LayerCount: 2
Fore
SplineSet
159 759 m 1
 188 766 l 1
 200 733 218 649 218 562 c 0
 218 488 205 429 184 376 c 1
 199 349 218 300 218 247 c 0
 218 143 175 86 102 12 c 0
 45 -45 26 -85 26 -119 c 1
 0 -119 l 1
 0 335 l 1
 25 335 l 1
 25 329 32 322 41 322 c 0
 61 322 86 333 106 348 c 0
 170 394 185 472 185 561 c 0
 185 648 167 720 159 759 c 1
26 100 m 0
 26 90 33 83 42 83 c 0
 58 83 76 87 98 99 c 0
 159 133 185 184 185 246 c 0
 185 284 176 314 166 337 c 1
 148 302 126 270 101 237 c 0
 62 186 26 130 26 100 c 0
EndSplineSet
EndChar

StartChar: uni008A
Encoding: 138 138 9
Width: 318
Flags: HMW
LayerCount: 2
Fore
SplineSet
86 99 m 0
 117 122 170 143 218 143 c 0
 227 143 236 142 245 141 c 0
 283 133 288 146 288 172 c 2
 288 855.996 l 2
 288 865.996 289 873.996 303 873.996 c 0
 321 873.996 320 864.996 322 827.996 c 0
 331 697.996 555 629.996 555 340.996 c 0
 555 257.996 536.88 187.04 524 151.996 c 0
 515.925 130.024 488 137.996 496 166.996 c 0
 513.936 232.014 521 272.996 521 341.996 c 0
 521 468.996 470 539.996 418 582.996 c 0
 391 604.996 365 615.996 343 615.996 c 0
 320 615.996 318 600.996 318 547.996 c 2
 318 54 l 2
 318 -4 273 -68 234 -98 c 0
 203 -121 149 -143 100 -143 c 0
 67 -143 36 -133 17 -107 c 0
 5 -91 0 -73 0 -54 c 0
 0 4 47 69 86 99 c 0
EndSplineSet
EndChar

StartChar: uni0090
Encoding: 144 144 10
Width: 204
Flags: HMW
VStem: 0 26<-185 -172.178 24.9267 75> 245 37<-585.294 -349.061>
LayerCount: 2
Back
SplineSet
12 42 m 0
 26 42 27 39 29 8 c 0
 37 -110 202 -145 202 -364 c 1
 202 -411 183 -478 169 -509 c 1
 161 -524 137 -519 145 -498 c 0
 163 -448 172 -412 172 -364 c 0
 172 -275 134 -220 91 -186 c 0
 77 -175 57 -166 43 -166 c 0
 30 -166 27 -176 27 -197 c 0
 0 -197 l 0
 0 29 l 0
 0 40 3 42 12 42 c 0
EndSplineSet
Fore
SplineSet
35 -165 m 0
 29 -165 24 -170 24 -174 c 0
 0 -174 l 0
 0 13 l 1
 25 13 l 1
 25 -13 36 -47 51 -66 c 0
 101 -130 204 -208 204 -358 c 4
 204 -429 177 -496 164 -520 c 1
 139 -508 l 1
 157 -471 174 -416 174 -357 c 0
 174 -276 134 -215 93 -186 c 0
 73 -172 57 -165 35 -165 c 0
EndSplineSet
EndChar

StartChar: p
Encoding: 112 112 11
Width: 258
Flags: HMW
LayerCount: 2
Fore
SplineSet
41 193 m 0
 68 193 90 199 119 219 c 0
 187 266 224 351 224 467 c 0
 224 556 203 632 181 687 c 1
 211 699 l 1
 226 662 258 574 258 468 c 0
 258 253 145 151 73 60 c 0
 40 19 26 -30 26 -62 c 1
 0 -62 l 1
 0 206 l 0
 25 206 l 0
 25 200 32 193 41 193 c 0
EndSplineSet
EndChar

StartChar: h
Encoding: 104 104 13
Width: 258
Flags: HMW
LayerCount: 2
Back
SplineSet
15 98 m 4
 33 98 31 87 34 52 c 4
 46 -108 258 -174 258 -472 c 4
 258 -562 233 -647 220 -685 c 4
 212 -708 183 -699 192 -670 c 4
 208 -613 224 -540 224 -471 c 4
 224 -340 183 -279 132 -232 c 4
 108 -209 72 -192 55 -192 c 4
 33 -192 30 -205 30 -262 c 4
 0 -262 l 4
 0 80 l 4
 0 90 0 98 15 98 c 4
EndSplineSet
Fore
SplineSet
41 -193 m 0
 32 -193 25 -200 25 -206 c 0
 0 -206 l 0
 0 62 l 1
 26 62 l 1
 26 30 40 -19 73 -60 c 0
 145 -151 258 -253 258 -468 c 0
 258 -574 226 -662 211 -699 c 1
 181 -687 l 1
 203 -632 224 -556 224 -467 c 0
 224 -351 187 -266 119 -219 c 0
 90 -199 68 -193 41 -193 c 0
EndSplineSet
EndChar

StartChar: i
Encoding: 105 105 14
Width: 258
Flags: HMW
HStem: -773 21G<215 252.5> -140 20G<0 27>
VStem: 0 26<-330 -317.312 -158.771 -120> 259 33<-683.565 -476.74>
LayerCount: 2
Back
SplineSet
191 -763 m 5
 203 -725 225 -653 225 -566 c 4
 225 -475 192 -387 127 -346 c 4
 94 -325 67 -317 41 -317 c 4
 32 -317 25 -324 25 -330 c 4
 0 -330 l 4
 0 -120 l 5
 26 -120 l 5
 26 -160 70 -202 122 -254 c 4
 201 -332 258 -423 258 -567 c 4
 258 -654 235 -740 220 -772 c 5
 191 -763 l 5
EndSplineSet
Fore
SplineSet
191 -768 m 1
 203 -730 225 -658 225 -571 c 0
 225 -480 192 -392 127 -351 c 0
 94 -330 67 -322 41 -322 c 0
 32 -322 25 -329 25 -335 c 0
 0 -335 l 0
 0 -120 l 1
 26 -120 l 1
 26 -165 70 -207 122 -259 c 0
 201 -337 258 -428 258 -572 c 0
 258 -659 235 -745 220 -777 c 1
 191 -768 l 1
EndSplineSet
EndChar

StartChar: j
Encoding: 106 106 15
Width: 258
Flags: HMW
HStem: -120 21G<0 27>
VStem: 0 27<-120 -108.207 40.8781 88> 242 33<-398.246 -233.803>
LayerCount: 2
Back
SplineSet
188 -435 m 0
 200 -416 225 -392 225 -330 c 0
 225 -265 183 -186 104 -150 c 0
 89 -143 71 -138 57 -138 c 0
 42 -138 32 -146 32 -160 c 0
 0 -160 l 0
 0 52 l 0
 0 74 3 77 15 77 c 0
 31 77 32 72 32 38 c 0
 32 12 53 -24 99 -60 c 0
 182 -125 258 -209 258 -331 c 0
 258 -398 229 -438 215 -462 c 0
 214 -463 186 -438 188 -435 c 0
EndSplineSet
Fore
SplineSet
0 88 m 1
 26 88 l 17
 26 40 60 5 119 -50 c 0
 196 -121 258 -193 258 -316 c 0
 258 -371 241 -412 228 -435 c 1
 204 -410 l 1
 214 -386 225 -354 225 -315 c 0
 225 -242 203 -177 115 -130 c 0
 93 -118 67 -108 42 -108 c 0
 33 -108 26 -114 26 -120 c 0
 26 -120 11 -120 0 -120 c 25
 0 88 l 1
EndSplineSet
EndChar

StartChar: k
Encoding: 107 107 16
Width: 258
Flags: HMW
HStem: -120 21G<0 27>
VStem: 0 27<-120 -108.207 40.8781 88> 242 33<-398.246 -233.803>
LayerCount: 2
Fore
SplineSet
191 -768 m 1
 203 -730 225 -658 225 -571 c 0
 225 -480 192 -392 127 -351 c 0
 94 -330 67 -322 41 -322 c 0
 32 -322 25 -329 25 -335 c 1
 0 -335 l 1
 0 88 l 1
 26 88 l 1
 26 40 60 5 119 -50 c 0
 196 -121 258 -193 258 -316 c 0
 258 -363 245 -400 234 -424 c 1
 249 -467 258 -515 258 -572 c 0
 258 -659 235 -745 220 -777 c 1
 191 -768 l 1
26 -120 m 0
 26 -165 70 -207 122 -259 c 0
 159 -295 191 -335 215 -381 c 1
 221 -362 225 -340 225 -315 c 0
 225 -242 203 -177 115 -130 c 0
 93 -118 67 -108 42 -108 c 0
 33 -108 26 -114 26 -120 c 0
EndSplineSet
EndChar

StartChar: m
Encoding: 109 109 17
Width: 258
Flags: HMW
VStem: 0 26<-160 -147.312 18.5 75> 241 34<-500.351 -270.825>
LayerCount: 2
Back
SplineSet
42 -193 m 4
 33 -193 26 -200 26 -206 c 4
 0 -206 l 4
 0 62 l 5
 27 62 l 5
 27 30 40 -19 73 -60 c 4
 145 -151 258 -253 258 -468 c 4
 258 -574 226 -662 211 -699 c 5
 181 -687 l 5
 203 -632 224 -556 224 -467 c 4
 224 -351 187 -266 119 -219 c 4
 90 -199 69 -193 42 -193 c 4
EndSplineSet
Fore
SplineSet
208 -503 m 1
 214 -474 224 -422 224 -376 c 0
 224 -284 200 -222 135 -178 c 0
 106 -159 75 -147 41 -147 c 0
 32 -147 25 -154 25 -160 c 1
 0 -160 l 1
 0 75 l 1
 26 75 l 17
 26 33 47 -2 63 -20 c 0
 131 -99 258 -164 258 -377 c 0
 258 -428 245 -490 238 -512 c 1
 208 -503 l 1
EndSplineSet
EndChar

StartChar: s
Encoding: 115 115 18
Width: 258
Flags: HMW
HStem: 99 21G<0 27>
VStem: 0 27<108 120 -88 -41> 242 33<234 398>
LayerCount: 2
Fore
SplineSet
191 768 m 1
 220 777 l 1
 235 745 258 659 258 572 c 0
 258 515 249 467 234 424 c 1
 245 400 258 363 258 316 c 0
 258 193 196 121 119 50 c 0
 60 -5 26 -40 26 -88 c 1
 0 -88 l 1
 0 335 l 1
 25 335 l 1
 25 329 32 322 41 322 c 0
 67 322 94 330 127 351 c 0
 192 392 225 480 225 571 c 0
 225 658 203 730 191 768 c 1
26 120 m 0
 26 114 33 108 42 108 c 0
 67 108 93 118 115 130 c 0
 203 177 225 242 225 315 c 0
 225 340 221 362 215 381 c 1
 191 335 159 295 122 259 c 0
 70 207 26 165 26 120 c 0
EndSplineSet
EndChar

StartChar: u
Encoding: 117 117 19
Width: 258
Flags: HMW
VStem: 0 26<147 160 -75 -18> 241 34<271 500>
LayerCount: 2
Fore
SplineSet
208 503 m 1
 238 512 l 1
 245 490 258 428 258 377 c 0
 258 164 131 99 63 20 c 0
 47 2 26 -33 26 -75 c 9
 0 -75 l 1
 0 160 l 1
 25 160 l 1
 25 154 32 147 41 147 c 0
 75 147 106 159 135 178 c 0
 200 222 224 284 224 376 c 0
 224 422 214 474 208 503 c 1
EndSplineSet
EndChar

StartChar: U
Encoding: 85 85 20
Width: 292
Flags: HMW
VStem: 0 26<147 160 -75 -18> 258 34<278 500>
LayerCount: 2
Fore
SplineSet
242 503 m 1
 272 512 l 1
 279 490 292 428 292 377 c 0
 292 164 131 99 63 20 c 0
 47 2 26 -33 26 -75 c 9
 0 -75 l 1
 0 160 l 1
 25 160 l 1
 25 154 32 147 41 147 c 0
 75 147 118 158 148 175 c 0
 216 213 258 272 258 376 c 0
 258 422 248 474 242 503 c 1
EndSplineSet
EndChar

StartChar: S
Encoding: 83 83 21
Width: 292
Flags: HMW
LayerCount: 2
Fore
SplineSet
259 571 m 0
 259 658 231 730 215 767 c 1
 244 778 l 1
 261 748 292 659 292 572 c 0
 292 517 283 470 266 428 c 1
 278 404 292 366 292 316 c 0
 292 198 209 109 128 49 c 0
 63 1 26 -40 26 -88 c 1
 0 -88 l 1
 0 335 l 1
 25 335 l 1
 25 329 32 322 41 322 c 0
 173 322 259 447 259 571 c 0
26 120 m 0
 26 114 33 108 42 108 c 0
 72 108 104 116 127 127 c 0
 213 168 259 242 259 315 c 0
 259 343 253 367 246 388 c 1
 218 338 178 296 130 259 c 0
 66 209 26 165 26 120 c 0
EndSplineSet
EndChar

StartChar: X
Encoding: 88 88 22
Width: 275
Flags: HMW
LayerCount: 2
Back
SplineSet
15 87 m 4
 33 87 33 76 34 41 c 4
 40 -106 275 -167 275 -483 c 4
 275 -573 250 -658 237 -696 c 4
 229 -719 200 -710 209 -681 c 4
 225 -624 241 -551 241 -482 c 4
 241 -337 183 -257 123 -218 c 4
 95 -200 72 -193 55 -193 c 4
 33 -193 30 -206 30 -263 c 4
 0 -263 l 4
 0 69 l 4
 0 79 0 87 15 87 c 4
EndSplineSet
Fore
SplineSet
41 -193 m 4
 32 -193 25 -200 25 -206 c 4
 0 -206 l 0
 0 62 l 1
 26 62 l 1
 26 30 40 -19 73 -60 c 0
 145 -151 275 -253 275 -468 c 0
 275 -574 236 -665 217 -700 c 1
 189 -686 l 1
 215 -633 241 -556 241 -467 c 0
 241 -351 198 -267 125 -219 c 0
 95 -200 68 -193 41 -193 c 4
EndSplineSet
EndChar

StartChar: Y
Encoding: 89 89 23
Width: 275
Flags: HMW
HStem: -773 21G<215 252.5> -140 20G<0 27>
VStem: 0 26<-330 -317.312 -158.771 -120> 259 33<-683.565 -476.74>
LayerCount: 2
Back
SplineSet
198 -762 m 5
 214 -725 242 -653 242 -566 c 4
 242 -475 203 -383 134 -343 c 4
 100 -323 68 -317 42 -317 c 4
 33 -317 26 -324 26 -330 c 4
 0 -330 l 4
 0 -120 l 5
 27 -120 l 5
 27 -160 68 -209 126 -254 c 4
 224 -330 275 -423 275 -567 c 4
 275 -654 244 -743 227 -773 c 5
 198 -762 l 5
EndSplineSet
Fore
SplineSet
198 -767 m 1
 214 -730 242 -658 242 -571 c 0
 242 -480 203 -388 134 -348 c 0
 100 -328 67 -322 41 -322 c 0
 32 -322 25 -329 25 -335 c 0
 0 -335 l 0
 0 -120 l 1
 26 -120 l 5
 26 -165 68 -214 126 -259 c 0
 224 -335 275 -428 275 -572 c 0
 275 -659 244 -748 227 -778 c 1
 198 -767 l 1
EndSplineSet
EndChar

StartChar: I
Encoding: 73 73 24
Width: 292
Flags: HW
HStem: -773 21G<215 252.5> -140 20G<0 27>
VStem: 0 26<-330 -317.312 -158.771 -120> 259 33<-683.565 -476.74>
LayerCount: 2
Back
SplineSet
215 -762 m 5
 231 -725 259 -653 259 -566 c 4
 259 -475 209.016 -383.259 140 -343 c 4
 105.927 -323.124 70 -317 41 -317 c 4
 32 -317 25 -324 25 -330 c 4
 0 -330 l 4
 0 -120 l 5
 26 -120 l 5
 26 -160 65.8515 -204.191 130 -254 c 4
 227.885 -330.005 292 -423 292 -567 c 4
 292 -654 261 -743 244 -773 c 5
 215 -762 l 5
EndSplineSet
Fore
SplineSet
215 -767 m 1
 231 -730 259 -658 259 -571 c 0
 259 -480 209 -388 140 -348 c 0
 106 -328 70 -322 41 -322 c 0
 32 -322 25 -329 25 -335 c 0
 0 -335 l 0
 0 -120 l 1
 26 -120 l 1
 26 -165 66 -209 130 -259 c 0
 228 -335 292 -428 292 -572 c 0
 292 -659 261 -748 244 -778 c 1
 215 -767 l 1
EndSplineSet
EndChar

StartChar: K
Encoding: 75 75 25
Width: 292
Flags: HW
LayerCount: 2
Back
SplineSet
259 -566 m 4
 259 -443 174 -317 42 -317 c 4
 33 -317 26 -324 26 -330 c 5
 0 -330 l 5
 0 88 l 5
 27 88 l 5
 27 40 63 -1 128 -49 c 4
 209 -109 292 -198 292 -316 c 4
 292 -364 279 -402 267 -426 c 5
 283 -467 292 -513 292 -567 c 4
 292 -654 261 -743 244 -773 c 5
 215 -762 l 5
 231 -725 259 -653 259 -566 c 4
27 -120 m 4
 27 -160 66 -204 130 -254 c 4
 179 -292 219 -334 247 -385 c 5
 254 -365 259 -342 259 -315 c 4
 259 -242 213 -168 127 -127 c 4
 104 -116 73 -108 43 -108 c 4
 34 -108 27 -114 27 -120 c 4
EndSplineSet
Fore
SplineSet
259 -571 m 0
 259 -447 173 -322 41 -322 c 0
 32 -322 25 -329 25 -335 c 1
 0 -335 l 1
 0 88 l 1
 26 88 l 1
 26 40 63 -1 128 -49 c 0
 209 -109 292 -198 292 -316 c 0
 292 -366 278 -404 266 -428 c 1
 283 -470 292 -517 292 -572 c 0
 292 -659 261 -748 244 -778 c 1
 215 -767 l 1
 231 -730 259 -658 259 -571 c 0
26 -120 m 0
 26 -165 66 -209 130 -259 c 0
 178 -296 218 -338 246 -388 c 1
 253 -367 259 -343 259 -315 c 0
 259 -242 213 -168 127 -127 c 0
 104 -116 72 -108 42 -108 c 0
 33 -108 26 -114 26 -120 c 0
EndSplineSet
EndChar

StartChar: L
Encoding: 76 76 26
Width: 292
Flags: HW
LayerCount: 2
Back
SplineSet
259 -571 m 4
 259 -447 173 -322 41 -322 c 4
 32 -322 25 -329 25 -335 c 5
 0 -335 l 5
 0 88 l 5
 26 88 l 5
 26 40 63 -1 128 -49 c 4
 209 -109 292 -198 292 -316 c 4
 292 -366 278 -404 266 -428 c 5
 283 -470 292 -517 292 -572 c 4
 292 -659 261 -748 244 -778 c 5
 215 -767 l 5
 231 -730 259 -658 259 -571 c 4
26 -120 m 4
 26 -165 66 -209 130 -259 c 4
 178 -296 218 -338 246 -388 c 5
 253 -367 259 -343 259 -315 c 4
 259 -242 213 -168 127 -127 c 4
 104 -116 72 -108 42 -108 c 4
 33 -108 26 -114 26 -120 c 4
EndSplineSet
Fore
SplineSet
255 -632 m 1
 255 -632 259 -605 259 -571 c 0
 259 -447 173 -322 41 -322 c 0
 32 -322 25 -329 25 -335 c 1
 0 -335 l 1
 0 88 l 1
 26 88 l 1
 26 40 63 -1 128 -49 c 0
 209 -109 292 -198 292 -316 c 0
 292 -366 278 -404 266 -428 c 1
 283 -470 292 -517 292 -572 c 0
 292 -604 286 -636 286 -636 c 1
 255 -632 l 1
26 -120 m 0
 26 -165 66 -209 130 -259 c 0
 178 -296 218 -338 246 -388 c 1
 253 -367 259 -343 259 -315 c 0
 259 -242 213 -168 127 -127 c 0
 104 -116 72 -108 42 -108 c 0
 33 -108 26 -114 26 -120 c 0
EndSplineSet
EndChar

StartChar: P
Encoding: 80 80 27
Width: 292
Flags: HW
VStem: 0 26<172 185 -75 -25> 245 37<349 585>
LayerCount: 2
Fore
SplineSet
41 193 m 0
 72 193 101 200 131 219 c 0
 204 267 258 351 258 467 c 0
 258 556 232 633 206 686 c 1
 234 700 l 1
 253 665 292 574 292 468 c 0
 292 253 145 151 73 60 c 0
 40 19 26 -30 26 -62 c 1
 0 -62 l 1
 0 206 l 0
 25 206 l 0
 25 200 32 193 41 193 c 0
EndSplineSet
EndChar

StartChar: Z
Encoding: 90 90 28
Width: 275
Flags: HW
HStem: -120 21G<0 27>
VStem: 0 27<-120 -108.207 40.8781 88> 242 33<-398.246 -233.803>
LayerCount: 2
Back
SplineSet
57 -138 m 4
 42 -138 32 -146 32 -160 c 4
 0 -160 l 4
 0 52 l 4
 0 74 3 77 15 77 c 4
 31 77 32 72 32 38 c 4
 32 3 64 -34 128 -83 c 4
 210 -146 275 -228 275 -346 c 4
 275 -401 257 -443 245 -466 c 4
 240 -475 215 -452 219 -443 c 4
 229 -421 242 -394 242 -345 c 4
 242 -272 211 -203 127 -159 c 4
 104 -147 79 -138 57 -138 c 4
EndSplineSet
Fore
SplineSet
0 88 m 1
 26 88 l 17
 26 40 63 1 126 -49 c 0
 205 -112 275 -198 275 -316 c 0
 275 -371 258 -412 245 -435 c 1
 221 -410 l 1
 231 -386 242 -354 242 -315 c 0
 242 -242 207 -168 121 -127 c 0
 98 -116 67 -108 42 -108 c 0
 33 -108 26 -114 26 -120 c 0
 26 -120 11 -120 0 -120 c 25
 0 88 l 1
EndSplineSet
EndChar

StartChar: bracketleft
Encoding: 91 91 29
Width: 275
Flags: HW
HStem: -120 21G<0 27>
VStem: 0 27<-120 -108.207 40.8781 88> 242 33<-398.246 -233.803>
LayerCount: 2
Fore
SplineSet
242 -571 m 0
 242 -448 171 -322 41 -322 c 0
 32 -322 25 -329 25 -335 c 1
 0 -335 l 1
 0 88 l 1
 26 88 l 1
 26 40 63 1 126 -49 c 0
 205 -112 275 -198 275 -316 c 0
 275 -362 263 -399 251 -423 c 1
 267 -466 275 -515 275 -572 c 0
 275 -659 244 -748 227 -778 c 1
 198 -767 l 1
 214 -730 242 -658 242 -571 c 0
26 -120 m 0
 26 -165 68 -214 126 -259 c 0
 172 -294 207 -334 232 -380 c 1
 238 -361 242 -339 242 -315 c 0
 242 -242 207 -168 121 -127 c 0
 98 -116 67 -108 42 -108 c 0
 33 -108 26 -114 26 -120 c 0
EndSplineSet
EndChar

StartChar: bracketright
Encoding: 93 93 30
Width: 275
Flags: HW
VStem: 0 26<-160 -147.312 18.5 75> 241 34<-500.351 -270.825>
LayerCount: 2
Back
SplineSet
241 -406 m 0
 241 -452 235 -482 231 -511 c 0
 227 -541 252 -548 259 -526 c 0
 265 -507 275 -458 275 -407 c 0
 275 -143 44 -104 34 11 c 0
 32 36 33 47 15 47 c 0
 1 47 0 39 0 29 c 0
 0 -229 l 0
 30 -229 l 0
 30 -193 33 -180 55 -180 c 0
 79 -180 108 -186 137 -204 c 0
 194 -238 241 -302 241 -406 c 0
EndSplineSet
Fore
SplineSet
225 -503 m 1
 231 -474 241 -422 241 -376 c 0
 241 -272 210 -213 142 -175 c 0
 112 -158 75 -147 41 -147 c 0
 32 -147 25 -154 25 -160 c 1
 0 -160 l 1
 0 75 l 1
 26 75 l 17
 26 33 47 -2 63 -20 c 0
 131 -99 275 -164 275 -377 c 0
 275 -428 262 -490 255 -512 c 1
 225 -503 l 1
EndSplineSet
EndChar

StartChar: uni0091
Encoding: 145 145 31
Width: 204
Flags: W
HStem: -22 20G<0 25>
VStem: 0 24<-169 -160.004 -41.8628 -2> 174 30<-433.025 -263.747>
LayerCount: 2
Back
SplineSet
27 -197 m 1
 0 -197 l 0
 0 -3 l 0
 0 9 3 10 12 10 c 0xa0
 26 10 29 10 29 -9 c 0
 29 -52.6667 60 -86 100 -120 c 0
 153 -165 202 -227 202 -334 c 0xa0
 202 -381 188 -438 174 -469 c 0
 166 -484 143 -479 150 -458 c 0xc0
 166 -408 171 -382 172 -334 c 0
 172 -259 145 -207 95 -180 c 0
 79.1377 -171.435 57 -164 43 -164 c 0
 30 -164 27 -176 27 -197 c 1
EndSplineSet
Fore
SplineSet
145 -472 m 1
 156 -446 174 -398 174 -337 c 0
 174 -273 143 -214 99 -185 c 0
 76 -170 55 -160 35 -160 c 0
 29 -160 24 -165 24 -169 c 0
 0 -169 l 0
 0 -2 l 1
 25 -2 l 1
 25 -36 48 -69 90 -109 c 0
 156 -171 204 -237 204 -338 c 0
 204 -399 183 -461 171 -482 c 1
 145 -472 l 1
EndSplineSet
EndChar

StartChar: uni0092
Encoding: 146 146 32
Width: 204
Flags: W
HStem: -2 21G<0 25>
VStem: 0 25<-2 9.99112 117.987 164> 174 30<-201.38 -72.2121>
LayerCount: 2
Back
SplineSet
156.888 -197.224 m 1
 170.817 -171.133 172 -153.314 172 -128 c 0
 172 -84 139 -30.5 92 -7 c 0
 76.5371 0.731445 59 7 45 7 c 0
 32 7 29 -2 29 -9 c 0
 0 -9.00195 l 0
 0 163 l 0
 0 175 3 176 12 176 c 0
 26 176 29 176 29 157 c 0
 29 115 61.6719 83.375 100 47.5 c 0
 162.5 -11 202 -61 202 -129.5 c 1
 202 -160.294 191.004 -198.71 175.115 -223.295 c 1
 173.461 -225.855 155.135 -200.508 156.888 -197.224 c 1
EndSplineSet
Fore
SplineSet
0 164 m 1
 25 164 l 17
 25 130 45 93 90 57 c 0
 144 14 204 -51 204 -134 c 0
 204 -172 191 -206 179 -227 c 1
 157 -207 l 1
 164 -189 174 -160 174 -133 c 0
 174 -82 146 -32 86 -3 c 0
 70 5 55 10 38 10 c 0
 30 10 25 7 25 -2 c 0
 25 -2 10 -2 0 -2 c 25
 0 164 l 1
EndSplineSet
EndChar

StartChar: uni0093
Encoding: 147 147 33
Width: 204
Flags: W
VStem: 0 25<-169 -160.004 -45.098 9.99112 117.987 164> 174 30<-433.025 -262.686 -192.407 -72.2121>
LayerCount: 2
Back
SplineSet
189 -246 m 0xa0
 197 -271 202 -300 202 -334 c 0xa0
 202 -381 188 -438 174 -469 c 1
 166 -484 143 -479 150 -458 c 0xc0
 166 -408 172 -382 172 -334 c 4
 172 -259 145 -207 95 -180 c 4
 79.1377 -171.435 57 -164 43 -164 c 4
 30 -164 27 -176 27 -197 c 5
 0 -197 l 1
 0 163 l 2
 0 175 3 176 12 176 c 0
 26 176 29 176 29 157 c 0
 29 115 62 83 100 48 c 0
 162 -11 202 -61 202 -130 c 0
 202 -147 198 -168 192 -186 c 0
 183 -215 180 -220 189 -246 c 0xa0
29 -9 m 0
 29 -53 60 -86 100 -120 c 0
 114 -132 129 -146 142 -161 c 0
 154 -176 167 -183 171 -155 c 0
 172 -147 172 -138 172 -128 c 0
 172 -84 139 -30 92 -7 c 0
 77 1 59 7 45 7 c 0
 32 7 29 -2 29 -9 c 0
EndSplineSet
Fore
SplineSet
145 -472 m 1
 156 -446 174 -398 174 -337 c 0
 174 -273 143 -214 99 -185 c 0
 76 -170 55 -160 35 -160 c 0
 29 -160 24 -165 24 -169 c 1
 0 -169 l 1
 0 164 l 1
 25 164 l 1
 25 130 45 93 90 57 c 0
 144 14 204 -51 204 -134 c 0
 204 -171 192 -204 180 -225 c 1
 195 -258 204 -295 204 -338 c 0
 204 -399 183 -461 171 -482 c 1
 145 -472 l 1
25 -2 m 0
 25 -36 48 -69 90 -109 c 0
 118 -136 143 -163 162 -193 c 1
 168 -176 174 -154 174 -133 c 0
 174 -82 146 -32 86 -3 c 0
 70 5 55 10 38 10 c 0
 30 10 25 7 25 -2 c 0
EndSplineSet
EndChar

StartChar: uni0094
Encoding: 148 148 34
Width: 1000
Flags: H
LayerCount: 2
Back
SplineSet
122 -143 m 1xa0
 130 -148 135 -153 141 -160 c 0
 155 -176 168 -178 171 -154 c 0
 172 -146 172 -137 172 -128 c 0
 172 -84 139 -30 92 -7 c 0
 77 1 59 7 45 7 c 0
 32 7 29 -2 29 -9 c 1
 0 -9 l 1
 0 163 l 2
 0 175 3 176 12 176 c 0
 26 176 29 176 29 157 c 0
 29 115 62 83 100 48 c 0
 162 -11 202 -61 202 -130 c 0xc0
 202 -146 199 -165 193 -183 c 0
 185 -209 185 -218 193 -243 c 0
 195 -249 198 -259 198 -267 c 1
 182 -269 l 17
 169 -217 153 -194 112 -153 c 9
 122 -143 l 1xa0
EndSplineSet
EndChar

StartChar: uni0095
Encoding: 149 149 35
Width: 204
Flags: W
HStem: -2 21G<0 25>
VStem: 0 25<-2 9.99112 117.987 164> 174 30<-201.38 -72.2121>
LayerCount: 2
Fore
SplineSet
0 330 m 1
 25 330 l 1
 25 296 45 259 90 223 c 0
 144 180 204 115 204 32 c 0
 204 -1 194 -31 184 -52 c 1
 196 -77 204 -104 204 -134 c 0
 204 -171 192 -204 180 -225 c 1
 195 -258 204 -295 204 -338 c 0
 204 -399 183 -461 171 -482 c 1
 145 -472 l 1
 156 -446 174 -398 174 -337 c 0
 174 -273 143 -214 99 -185 c 0
 76 -170 55 -160 35 -160 c 0
 29 -160 24 -165 24 -169 c 1
 0 -169 l 1
 0 330 l 1
25 -2 m 0
 25 -36 48 -69 90 -109 c 0
 118 -136 143 -163 162 -193 c 1
 168 -176 174 -154 174 -133 c 0
 174 -82 146 -32 86 -3 c 0
 70 5 55 10 38 10 c 0
 30 10 25 7 25 -2 c 0
165 -20 m 1
 170 -4 174 15 174 33 c 0
 174 84 146 134 86 163 c 0
 70 171 55 176 38 176 c 0
 30 176 25 173 25 164 c 0
 25 130 45 93 90 57 c 0
 116 36 143 11 165 -20 c 1
EndSplineSet
EndChar

StartChar: uni0096
Encoding: 150 150 36
Width: 204
Flags: W
VStem: 0 25<-169 -160.004 -45.098 9.99112 117.987 175.991 283.987 341.991 449.987 496> 174 30<-433.025 -262.686 -192.407 -71.9102 -19.5099 94.0898 146.49 259.788>
LayerCount: 2
Fore
SplineSet
165 -20 m 1
 170 -4 174 15 174 33 c 0
 174 84 146 134 86 163 c 0
 70 171 55 176 38 176 c 0
 30 176 25 173 25 164 c 0
 25 130 45 93 90 57 c 0
 116 36 143 11 165 -20 c 1
25 -2 m 0
 25 -36 48 -69 90 -109 c 0
 118 -136 143 -163 162 -193 c 1
 168 -176 174 -154 174 -133 c 0
 174 -82 146 -32 86 -3 c 0
 70 5 55 10 38 10 c 0
 30 10 25 7 25 -2 c 0
0 496 m 1
 25 496 l 1
 25 462 45 425 90 389 c 0
 144 346 204 281 204 198 c 0
 204 165 194 135 184 114 c 1
 196 89 204 62 204 32 c 0
 204 -1 194 -31 184 -52 c 1
 196 -77 204 -104 204 -134 c 0
 204 -171 192 -204 180 -225 c 1
 195 -258 204 -295 204 -338 c 0
 204 -399 183 -461 171 -482 c 1
 145 -472 l 1
 156 -446 174 -398 174 -337 c 0
 174 -273 143 -214 99 -185 c 0
 76 -170 55 -160 35 -160 c 0
 29 -160 24 -165 24 -169 c 1
 0 -169 l 1
 0 496 l 1
25 330 m 0
 25 296 45 259 90 223 c 0
 116 202 143 177 165 146 c 1
 170 162 174 181 174 199 c 0
 174 250 146 300 86 329 c 0
 70 337 55 342 38 342 c 0
 30 342 25 339 25 330 c 0
EndSplineSet
EndChar

StartChar: uni0097
Encoding: 151 151 37
Width: 204
Flags: HW
HStem: -2 21G<0 25>
VStem: 0 25<-2 9.99112 117.987 164> 174 30<-201.38 -72.2121>
LayerCount: 2
Fore
SplineSet
25 330 m 0
 25 296 45 259 90 223 c 0
 116 202 143 177 165 146 c 1
 170 162 174 181 174 199 c 0
 174 250 146 300 86 329 c 0
 70 337 55 342 38 342 c 0
 30 342 25 339 25 330 c 0
25 -2 m 0
 25 -36 48 -69 90 -109 c 0
 118 -136 143 -163 162 -193 c 1
 168 -176 174 -154 174 -133 c 0
 174 -82 146 -32 86 -3 c 0
 70 5 55 10 38 10 c 0
 30 10 25 7 25 -2 c 0
165 -20 m 1
 170 -4 174 15 174 33 c 0
 174 84 146 134 86 163 c 0
 70 171 55 176 38 176 c 0
 30 176 25 173 25 164 c 0
 25 130 45 93 90 57 c 0
 116 36 143 11 165 -20 c 1
0 662 m 1
 25 662 l 1
 25 628 45 591 90 555 c 0
 144 512 204 447 204 364 c 0
 204 331 194 301 184 280 c 1
 196 255 204 228 204 198 c 0
 204 165 194 135 184 114 c 1
 196 89 204 62 204 32 c 0
 204 -1 194 -31 184 -52 c 1
 196 -77 204 -104 204 -134 c 0
 204 -171 192 -204 180 -225 c 1
 195 -258 204 -295 204 -338 c 0
 204 -399 183 -461 171 -482 c 1
 145 -472 l 1
 156 -446 174 -398 174 -337 c 0
 174 -273 143 -214 99 -185 c 0
 76 -170 55 -160 35 -160 c 0
 29 -160 24 -165 24 -169 c 1
 0 -169 l 1
 0 662 l 1
25 496 m 0
 25 462 45 425 90 389 c 0
 116 368 143 343 165 312 c 1
 170 328 174 347 174 365 c 0
 174 416 146 466 86 495 c 0
 70 503 55 508 38 508 c 0
 30 508 25 505 25 496 c 0
EndSplineSet
EndChar

StartChar: dieresis
Encoding: 168 168 38
Width: 202
Flags: W
HStem: -95 190<59.623 143.943>
VStem: 175 27<94.8786 393.816 527.119 601.978> 347 30<104.381 280.342>
LayerCount: 2
Fore
SplineSet
0 -26 m 0
 0 37 62 95 129 95 c 0
 135 95 146 94 152 94 c 0
 165 94 175 97 175 116 c 2
 175 589 l 2
 175 600 178 602 187 602 c 0
 201 602 202 599 204 568 c 0
 212 450 377 415 377 196 c 0
 377 149 358 82 344 51 c 1
 336 36 312 41 320 62 c 0
 338 112 347 148 347 196 c 0
 347 285 309 340 266 374 c 0
 252 385 232 394 218 394 c 0
 205 394 202 384 202 363 c 2
 202 27 l 2
 202 -37 141 -95 74 -95 c 0
 35 -95 0 -68 0 -26 c 0
EndSplineSet
EndChar

StartChar: copyright
Encoding: 169 169 39
Width: 202
Flags: W
HStem: -95 190<59.623 143.943>
VStem: 175 27<94.8786 261.782 373.268 432.497 540.99 601.997> 325 24<-50.0145 -11.4747> 347 30<-5.73063 175.475 254.145 352.429>
LayerCount: 2
Fore
SplineSet
202 229 m 6xd0
 202 27 l 2
 202 -37 141 -95 74 -95 c 0
 35 -95 0 -68 0 -26 c 0
 0 37 62 95 129 95 c 0
 135 95 146 94 152 94 c 0
 165 94 175 97 175 116 c 2
 175 589 l 2
 175 601 178 602 187 602 c 0
 201 602 204 602 204 583 c 0
 204 541 237 509 275 474 c 0
 337 415 377 365 377 296 c 0
 377 279 373 258 367 240 c 0
 358 211 355 206 364 180 c 0
 372 155 377 126 377 92 c 0xd0
 377 45 363 -12 349 -43 c 1
 341 -58 318 -53 325 -32 c 0xe0
 341 18 347 44 347 92 c 4
 347 167 320 219 270 246 c 4
 254.138 254.565 232 262 218 262 c 4
 205 262 202 250 202 229 c 6xd0
204 417 m 0
 204 373 235 340 275 306 c 0
 289 294 304 280 317 265 c 0
 329 250 342 243 346 271 c 0
 347 279 347 288 347 298 c 0
 347 342 314 396 267 419 c 0
 252 427 234 433 220 433 c 0
 207 433 204 424 204 417 c 0
EndSplineSet
EndChar

StartChar: ordfeminine
Encoding: 170 170 40
Width: 202
Flags: HW
HStem: -95 190<59.623 143.943>
VStem: 0 202<-37.2618 37.5247> 175 29<94.6618 224.993 333.017 397.942 500.892 563.942 666.892 732.991> 325 24<-85.0145 -46.4747> 347 30<-40.7306 136.511 219.145 317.445 386.493 483.429>
LayerCount: 2
Fore
SplineSet
202 195 m 2
 202 27 l 2
 202 -37 141 -95 74 -95 c 0
 35 -95 0 -68 0 -26 c 0xc8
 0 37 62 95 129 95 c 0
 135 95 146 94 152 94 c 0
 165 94 175 97 175 116 c 2
 175 720 l 2
 175 732 178 733 187 733 c 0
 201 733 204 733 204 714 c 0
 204 672 237 640 275 605 c 0
 337 546 377 496 377 427 c 0
 377 411 374 392 368 374 c 0
 361 350 358 340 366 321 c 0
 374 301 377 282 377 261 c 0
 377 244 373 223 367 205 c 0
 358 176 355 171 364 145 c 0
 372 120 377 91 377 57 c 0xa8
 377 10 363 -47 349 -78 c 1
 341 -93 318 -88 325 -67 c 0x90
 341 -17 347 9 347 58 c 0
 347 133 320 185 270 212 c 0
 254.138 220.565 232 228 218 228 c 0
 205 228 202 216 202 195 c 2
204 548 m 0
 204 506 237 474 275 439 c 0
 291 423 305 407 319 393 c 0
 332 381 343 381 346 403 c 0
 347 411 347 420 347 429 c 0
 347 473 314 527 267 550 c 0
 252 558 234 564 220 564 c 0
 207 564 204 555 204 548 c 0
204 382 m 0
 204 338 235 305 275 271 c 0
 289 259 304 245 317 230 c 0
 329 215 342 208 346 236 c 0
 347 244 347 253 347 263 c 0
 347 307 314 361 267 384 c 0
 252 392 234 398 220 398 c 0
 207 398 204 389 204 382 c 0
EndSplineSet
EndChar

StartChar: guillemotleft
Encoding: 171 171 41
Width: 202
Flags: HW
VStem: 0 29<-9 6.9418 109.892 175.991> 172 30<-170.365 -73.5708> 182 16<-267 -243.002>
LayerCount: 2
Fore
SplineSet
202 187 m 2
 202 27 l 2
 202 -37 141 -95 74 -95 c 0
 35 -95 0 -68 0 -26 c 0
 0 37 62 95 129 95 c 0
 135 95 146 94 152 94 c 0
 165 94 175 97 175 116 c 2
 175 878 l 2
 175 890 178 891 187 891 c 0
 201 891 204 891 204 872 c 0
 204 830 237 798 275 763 c 0
 337 704 377 654 377 585 c 0
 377 569 374 550 368 532 c 0
 361 508 358 498 366 479 c 0
 374 460 377 440 377 419 c 0
 377 403 374 384 368 366 c 0
 361 342 358 332 366 313 c 0
 374 293 377 274 377 253 c 0
 377 236 373 215 367 197 c 0
 358 168 355 163 364 137 c 0
 372 112 377 83 377 49 c 0
 377 2 363 -55 349 -86 c 1
 341 -101 318 -96 325 -75 c 0
 341 -25 347 1 347 50 c 0
 347 125 320 177 270 204 c 0
 254.138 212.565 232 220 218 220 c 0
 205 220 202 208 202 187 c 2
204 706 m 0
 204 664 237 632 275 597 c 0
 291 581 305 565 319 551 c 0
 332 538 343 539 346 561 c 0
 347 569 347 578 347 587 c 0
 347 631 314 685 267 708 c 0
 252 716 234 722 220 722 c 0
 207 722 204 713 204 706 c 0
204 374 m 0
 204 330 235 297 275 263 c 0
 289 251 304 237 317 222 c 0
 329 207 342 200 346 228 c 0
 347 236 347 245 347 255 c 0
 347 299 314 353 267 376 c 0
 252 384 234 390 220 390 c 0
 207 390 204 381 204 374 c 0
204 540 m 0
 204 498 237 466 275 431 c 0
 291 415 305 399 319 385 c 0
 332 373 343 373 346 395 c 0
 347 403 347 412 347 421 c 0
 347 465 314 519 267 542 c 0
 252 550 234 556 220 556 c 0
 207 556 204 547 204 540 c 0
EndSplineSet
EndChar

StartChar: logicalnot
Encoding: 172 172 42
Width: 202
Flags: HW
VStem: 0 29<-9 6.9418 109.892 175.991> 172 30<-170.365 -73.5708> 182 16<-267 -243.002>
LayerCount: 2
Fore
SplineSet
202 184 m 2
 202 27 l 2
 202 -37 141 -95 74 -95 c 0
 35 -95 0 -68 0 -26 c 0
 0 37 62 95 129 95 c 0
 135 95 146 94 152 94 c 0
 165 94 175 97 175 116 c 2
 175 1042 l 2
 175 1054 178 1055 187 1055 c 0
 201 1055 204 1055 204 1036 c 0
 204 994 237 962 275 927 c 0
 337 868 377 818 377 749 c 0
 377 733 374 714 368 696 c 0
 361 672 358 662 366 643 c 0
 373 624 377 604 377 583 c 0
 377 567 374 548 368 530 c 0
 361 506 358 496 366 477 c 0
 374 458 377 438 377 417 c 0
 377 401 374 382 368 364 c 0
 361 340 358 330 366 311 c 0
 374 291 377 272 377 251 c 0
 377 234 373 213 367 195 c 0
 358 166 355 161 364 135 c 0
 372 110 377 81 377 47 c 0
 377 0 363 -57 349 -88 c 1
 341 -103 318 -98 325 -77 c 0
 341 -27 347 -1 347 47 c 0
 347 122 320 174 270 201 c 0
 254.138 209.565 232 217 218 217 c 0
 205 217 202 205 202 184 c 2
204 870 m 0
 204 828 237 796 275 761 c 0
 291 745 305 729 319 715 c 0
 333 702 343 703 346 725 c 0
 347 733 347 742 347 751 c 0
 347 795 314 849 267 872 c 0
 252 880 234 886 220 886 c 0
 207 886 204 877 204 870 c 0
204 538 m 0
 204 496 237 464 275 429 c 0
 291 413 305 397 319 383 c 0
 332 371 343 371 346 393 c 0
 347 401 347 410 347 419 c 0
 347 463 314 517 267 540 c 0
 252 548 234 554 220 554 c 0
 207 554 204 545 204 538 c 0
204 372 m 0
 204 328 235 295 275 261 c 0
 289 249 304 235 317 220 c 0
 329 205 342 198 346 226 c 0
 347 234 347 243 347 253 c 0
 347 297 314 351 267 374 c 0
 252 382 234 388 220 388 c 0
 207 388 204 379 204 372 c 0
204 704 m 0
 204 662 237 630 275 595 c 0
 291 579 305 563 319 549 c 0
 332 536 343 537 346 559 c 0
 347 567 347 576 347 585 c 0
 347 629 314 683 267 706 c 0
 252 714 234 720 220 720 c 0
 207 720 204 711 204 704 c 0
EndSplineSet
EndChar

StartChar: uni0098
Encoding: 152 152 43
Width: 204
Flags: HW
VStem: 0 26<172 185 -75 -25> 245 37<349 585>
LayerCount: 2
Fore
SplineSet
35 165 m 0
 57 165 73 172 93 186 c 0
 134 215 174 276 174 357 c 0
 174 416 157 471 139 508 c 1
 164 520 l 1
 177 496 204 429 204 358 c 0
 204 208 101 130 51 66 c 0
 36 47 25 13 25 -13 c 1
 0 -13 l 1
 0 174 l 0
 24 174 l 0
 24 170 29 165 35 165 c 0
EndSplineSet
EndChar

StartChar: uni009B
Encoding: 155 155 44
Width: 204
Flags: HW
HStem: -19 21G<0 25>
VStem: 0 25<-10 2 -164 -118> 174 30<72 201>
LayerCount: 2
Fore
SplineSet
145 472 m 1
 171 482 l 1
 183 461 204 399 204 338 c 0
 204 295 195 258 180 225 c 1
 192 204 204 171 204 134 c 0
 204 51 144 -14 90 -57 c 0
 45 -93 25 -130 25 -164 c 1
 0 -164 l 1
 0 169 l 1
 24 169 l 1
 24 165 29 160 35 160 c 0
 55 160 76 170 99 185 c 0
 143 214 174 273 174 337 c 0
 174 398 156 446 145 472 c 1
25 2 m 0
 25 -7 30 -10 38 -10 c 0
 55 -10 70 -5 86 3 c 0
 146 32 174 82 174 133 c 0
 174 154 168 176 162 193 c 1
 143 163 118 136 90 109 c 0
 48 69 25 36 25 2 c 0
EndSplineSet
EndChar

StartChar: uni009C
Encoding: 156 156 45
Width: 202
Flags: HW
VStem: 0 29<-6.9418 9 -175.991 -109.892> 172 30<73.5708 170.365> 182 16<243.002 267>
LayerCount: 2
Fore
SplineSet
122 143 m 1xa0
 112 153 l 17
 153 194 169 217 182 269 c 9
 198 267 l 1
 198 259 195 249 193 243 c 0
 185 218 185 209 193 183 c 0
 199 165 202 146 202 130 c 0xc0
 202 61 162 11 100 -48 c 0
 62 -83 29 -115 29 -157 c 0
 29 -176 26 -176 12 -176 c 0
 3 -176 0 -175 0 -163 c 2
 0 9 l 1
 29 9 l 1
 29 2 32 -7 45 -7 c 0
 59 -7 77 -1 92 7 c 0
 139 30 172 84 172 128 c 0
 172 137 172 146 171 154 c 0
 168 178 155 176 141 160 c 0
 135 153 130 148 122 143 c 1xa0
EndSplineSet
EndChar

StartChar: uni009D
Encoding: 157 157 46
Width: 204
Flags: HW
HStem: -19 21G<0 25>
VStem: 0 25<-10 2 -164 -118> 174 30<72 201>
LayerCount: 2
Fore
SplineSet
0 -330 m 1
 0 169 l 1
 24 169 l 1
 24 165 29 160 35 160 c 0
 55 160 76 170 99 185 c 0
 143 214 174 273 174 337 c 0
 174 398 156 446 145 472 c 1
 171 482 l 1
 183 461 204 399 204 338 c 0
 204 295 195 258 180 225 c 1
 192 204 204 171 204 134 c 0
 204 104 196 77 184 52 c 1
 194 31 204 1 204 -32 c 0
 204 -115 144 -180 90 -223 c 0
 45 -259 25 -296 25 -330 c 1
 0 -330 l 1
25 2 m 0
 25 -7 30 -10 38 -10 c 0
 55 -10 70 -5 86 3 c 0
 146 32 174 82 174 133 c 0
 174 154 168 176 162 193 c 1
 143 163 118 136 90 109 c 0
 48 69 25 36 25 2 c 0
165 20 m 1
 143 -11 116 -36 90 -57 c 0
 45 -93 25 -130 25 -164 c 0
 25 -173 30 -176 38 -176 c 0
 55 -176 70 -171 86 -163 c 0
 146 -134 174 -84 174 -33 c 0
 174 -15 170 4 165 20 c 1
EndSplineSet
EndChar

StartChar: uni009E
Encoding: 158 158 47
Width: 204
Flags: HW
VStem: 0 25<160 169 -10 45 -176 -118 -342 -284 -496 -450> 174 30<263 433 72 192 -94 20 -260 -146>
LayerCount: 2
Fore
SplineSet
165 20 m 1
 143 -11 116 -36 90 -57 c 0
 45 -93 25 -130 25 -164 c 0
 25 -173 30 -176 38 -176 c 0
 55 -176 70 -171 86 -163 c 0
 146 -134 174 -84 174 -33 c 0
 174 -15 170 4 165 20 c 1
25 2 m 0
 25 -7 30 -10 38 -10 c 0
 55 -10 70 -5 86 3 c 0
 146 32 174 82 174 133 c 0
 174 154 168 176 162 193 c 1
 143 163 118 136 90 109 c 0
 48 69 25 36 25 2 c 0
0 -496 m 1
 0 169 l 1
 24 169 l 1
 24 165 29 160 35 160 c 0
 55 160 76 170 99 185 c 0
 143 214 174 273 174 337 c 0
 174 398 156 446 145 472 c 1
 171 482 l 1
 183 461 204 399 204 338 c 0
 204 295 195 258 180 225 c 1
 192 204 204 171 204 134 c 0
 204 104 196 77 184 52 c 1
 194 31 204 1 204 -32 c 0
 204 -62 196 -89 184 -114 c 1
 194 -135 204 -165 204 -198 c 0
 204 -281 144 -346 90 -389 c 0
 45 -425 25 -462 25 -496 c 1
 0 -496 l 1
25 -330 m 0
 25 -339 30 -342 38 -342 c 0
 55 -342 70 -337 86 -329 c 0
 146 -300 174 -250 174 -199 c 0
 174 -181 170 -162 165 -146 c 1
 143 -177 116 -202 90 -223 c 0
 45 -259 25 -296 25 -330 c 0
EndSplineSet
EndChar

StartChar: uni009F
Encoding: 159 159 48
Width: 204
Flags: HW
HStem: -19 21G<0 25>
VStem: 0 25<-10 2 -164 -118> 174 30<72 201>
LayerCount: 2
Fore
SplineSet
25 -330 m 0
 25 -339 30 -342 38 -342 c 0
 55 -342 70 -337 86 -329 c 0
 146 -300 174 -250 174 -199 c 0
 174 -181 170 -162 165 -146 c 1
 143 -177 116 -202 90 -223 c 0
 45 -259 25 -296 25 -330 c 0
25 2 m 0
 25 -7 30 -10 38 -10 c 0
 55 -10 70 -5 86 3 c 0
 146 32 174 82 174 133 c 0
 174 154 168 176 162 193 c 1
 143 163 118 136 90 109 c 0
 48 69 25 36 25 2 c 0
165 20 m 1
 143 -11 116 -36 90 -57 c 0
 45 -93 25 -130 25 -164 c 0
 25 -173 30 -176 38 -176 c 0
 55 -176 70 -171 86 -163 c 0
 146 -134 174 -84 174 -33 c 0
 174 -15 170 4 165 20 c 1
0 -662 m 1
 0 169 l 1
 24 169 l 1
 24 165 29 160 35 160 c 0
 55 160 76 170 99 185 c 0
 143 214 174 273 174 337 c 0
 174 398 156 446 145 472 c 1
 171 482 l 1
 183 461 204 399 204 338 c 0
 204 295 195 258 180 225 c 1
 192 204 204 171 204 134 c 0
 204 104 196 77 184 52 c 1
 194 31 204 1 204 -32 c 0
 204 -62 196 -89 184 -114 c 1
 194 -135 204 -165 204 -198 c 0
 204 -228 196 -255 184 -280 c 1
 194 -301 204 -331 204 -364 c 0
 204 -447 144 -512 90 -555 c 0
 45 -591 25 -628 25 -662 c 1
 0 -662 l 1
25 -496 m 0
 25 -505 30 -508 38 -508 c 0
 55 -508 70 -503 86 -495 c 0
 146 -466 174 -416 174 -365 c 0
 174 -347 170 -328 165 -312 c 1
 143 -343 116 -368 90 -389 c 0
 45 -425 25 -462 25 -496 c 0
EndSplineSet
EndChar

StartChar: degree
Encoding: 176 176 49
Width: 202
Flags: W
HStem: -95 190<58.0566 162.368>
VStem: 0 27<-601.978 -527.119 -393.816 -94.8786> 172 30<-280.342 -104.329>
LayerCount: 2
Fore
SplineSet
12 -602 m 0
 3 -602 0 -600 0 -589 c 2
 0 -27 l 2
 0 37 61 95 128 95 c 0
 167 95 202 68 202 26 c 0
 202 6 195 -14 184 -32 c 0
 174 -48 172 -57 178 -75 c 0
 190 -109 202 -159 202 -196 c 0
 202 -415 37 -450 29 -568 c 0
 27 -599 26 -602 12 -602 c 0
121 -85 m 0
 106 -91 90 -95 73 -95 c 0
 67 -95 56 -94 50 -94 c 0
 37 -94 27 -97 27 -116 c 2
 27 -363 l 2
 27 -384 30 -394 43 -394 c 0
 57 -394 77 -385 91 -374 c 0
 134 -340 172 -285 172 -196 c 0
 172 -159 167 -129 156 -94 c 0
 151 -79 141 -77 121 -85 c 0
EndSplineSet
EndChar

StartChar: plusminus
Encoding: 177 177 50
Width: 202
Flags: HW
HStem: -95 190<58.0566 164.717>
VStem: 0 29<-617.991 -551.892 -448.942 -384.017 -277.991 -94.4021> 172 30<-368.429 -270.145 -189.578 -80.569>
LayerCount: 2
Back
SplineSet
189 -196 m 4
 180 -222 183 -227 192 -256 c 4
 198 -274 202 -295 202 -312 c 4
 202 -381 162 -431 100 -490 c 4
 62 -525 29 -557 29 -599 c 4
 29 -618 26 -618 12 -618 c 4
 3 -618 0 -617 0 -605 c 6
 0 -245 l 5
 27 -245 l 5
 27 -266 30 -276 43 -276 c 4
 57 -276 77 -272 92 -262 c 4
 144 -229 172 -180 172 -108 c 4
 172 -60 166 -34 150 16 c 4
 143 37 166 42 174 27 c 5
 188 -4 202 -61 202 -108 c 4
 202 -142 197 -171 189 -196 c 4
EndSplineSet
Fore
SplineSet
172 -125 m 0
 172 -111 169 -98 165 -85 c 0
 159 -71 150 -70 134 -79 c 0
 115 -89 94 -95 73 -95 c 0
 67 -95 56 -94 50 -94 c 0
 37 -94 27 -97 27 -116 c 2
 27 -245 l 1
 27 -266 30 -278 43 -278 c 0
 57 -278 79 -271 95 -262 c 0
 145 -235 172 -172 172 -125 c 0
29 -433 m 0
 29 -440 32 -449 45 -449 c 0
 59 -449 77 -443 92 -435 c 0
 139 -412 172 -358 172 -314 c 0
 172 -304 172 -295 171 -287 c 0
 167 -259 154 -266 142 -281 c 0
 129 -296 114 -310 100 -322 c 0
 60 -356 29 -389 29 -433 c 0
189 -196 m 0
 180 -222 183 -227 192 -256 c 0
 198 -274 202 -295 202 -312 c 0
 202 -381 162 -431 100 -490 c 0
 62 -525 29 -557 29 -599 c 0
 29 -618 26 -618 12 -618 c 0
 3 -618 0 -617 0 -605 c 2
 0 -27 l 2
 0 37 61 95 128 95 c 0
 167 95 202 68 202 26 c 0
 202 11 198 -5 192 -19 c 0
 184 -36 182 -43 189 -61 c 0
 196 -83 202 -106 202 -125 c 0
 202 -152 197 -171 189 -196 c 0
EndSplineSet
EndChar

StartChar: uni00B2
Encoding: 178 178 51
Width: 202
Flags: W
HStem: -95 190<58.0566 144.13>
VStem: 0 29<-774.991 -708.892 -605.942 -542.892 -439.942 -375.017 -268.991 -94.4021> 172 30<-525.429 -428.493 -359.445 -261.145 -187.698 -70.9218>
LayerCount: 2
Fore
SplineSet
172 -114 m 0
 172 -104 170 -94 167 -84 c 0
 163 -69 155 -66 138 -77 c 0
 118 -88 96 -95 73 -95 c 0
 67 -95 56 -94 50 -94 c 0
 37 -94 27 -97 27 -116 c 2
 27 -236 l 2
 27 -257 30 -269 43 -269 c 0
 57 -269 79 -262 95 -253 c 0
 145 -226 172 -180 172 -114 c 0
29 -590 m 0
 29 -597 32 -606 45 -606 c 0
 59 -606 77 -600 92 -592 c 0
 139 -569 172 -515 172 -471 c 0
 172 -462 172 -453 171 -445 c 0
 168 -423 157 -423 144 -435 c 0
 130 -449 116 -465 100 -481 c 0
 62 -516 29 -548 29 -590 c 0
29 -424 m 0
 29 -431 32 -440 45 -440 c 0
 59 -440 77 -434 92 -426 c 0
 139 -403 172 -349 172 -305 c 0
 172 -295 172 -286 171 -278 c 0
 167 -250 154 -257 142 -272 c 0
 129 -287 114 -301 100 -313 c 0
 60 -347 29 -380 29 -424 c 0
189 -186 m 0
 180 -213 183 -218 192 -247 c 0
 198 -265 202 -286 202 -303 c 0
 202 -324 199 -343 191 -363 c 0
 183 -382 186 -392 193 -416 c 0
 199 -434 202 -453 202 -469 c 0
 202 -538 162 -588 100 -647 c 0
 62 -682 29 -714 29 -756 c 0
 29 -775 26 -775 12 -775 c 0
 3 -775 0 -774 0 -762 c 2
 0 -27 l 2
 0 37 61 95 128 95 c 0
 167 95 202 68 202 26 c 0
 202 12 199 -2 194 -14 c 0
 186 -32 185 -42 191 -58 c 0
 198 -78 202 -98 202 -115 c 0
 202 -142 197 -161 189 -186 c 0
EndSplineSet
EndChar

StartChar: uni00B3
Encoding: 179 179 52
Width: 202
Flags: HW
HStem: -95 190<58.0566 144.13>
VStem: 0 29<-943.991 -877.892 -783.942 -720.892 -608.942 -545.892 -442.942 -378.017 -269.993 -94.4021> 172 30<-703.127 -606.091 -528.509 -431.493 -362.445 -264.145 -183.402 -76.7188>
LayerCount: 2
Back
SplineSet
27 -239 m 6
 27 -260 30 -270 43 -270 c 4
 57 -270 77 -266 92 -255 c 5
 140 -225 172 -176 172 -118 c 1028
EndSplineSet
Fore
SplineSet
172 -118 m 4
 172 -105 170 -93 166 -81 c 0
 161 -69 154 -67 137 -77 c 0
 118 -88 96 -95 73 -95 c 0
 67 -95 56 -94 50 -94 c 0
 37 -94 27 -97 27 -116 c 2
 27 -238 l 2
 27 -259 30 -271 43 -271 c 0
 57 -271 79 -264 95 -255 c 0
 145 -228 172 -173 172 -118 c 4
29 -768 m 0
 29 -775 32 -784 45 -784 c 0
 59 -784 77 -778 92 -770 c 0
 139 -747 172 -693 172 -649 c 0
 172 -640 172 -631 171 -623 c 0
 168 -601 157 -600 144 -613 c 0
 130 -627 116 -643 100 -659 c 0
 62 -694 29 -726 29 -768 c 0
29 -427 m 0
 29 -434 32 -443 45 -443 c 0
 59 -443 77 -437 92 -429 c 0
 139 -406 172 -352 172 -308 c 0
 172 -298 172 -289 171 -281 c 0
 167 -253 154 -260 142 -275 c 0
 129 -290 114 -304 100 -316 c 0
 60 -350 29 -383 29 -427 c 0
29 -593 m 0
 29 -600 32 -609 45 -609 c 0
 59 -609 77 -603 92 -595 c 0
 139 -572 172 -518 172 -474 c 0
 172 -465 172 -456 171 -448 c 0
 168 -426 157 -426 144 -438 c 0
 130 -452 116 -468 100 -484 c 0
 62 -519 29 -551 29 -593 c 0
189 -189 m 0
 180 -216 183 -221 192 -250 c 0
 198 -268 202 -289 202 -306 c 0
 202 -327 199 -346 191 -366 c 0
 183 -385 186 -395 193 -419 c 0
 199 -437 202 -456 202 -472 c 0
 202 -493 199 -513 191 -532 c 0
 183 -551 186 -561 193 -585 c 0
 199 -603 202 -622 202 -638 c 0
 202 -707 162 -757 100 -816 c 0
 62 -851 29 -883 29 -925 c 0
 29 -944 26 -944 12 -944 c 0
 3 -944 0 -943 0 -931 c 2
 0 -27 l 2
 0 37 61 95 128 95 c 0
 167 95 202 68 202 26 c 0
 202 12 199 -1 194 -14 c 0
 186 -32 184 -41 189 -56 c 0
 197 -77 202 -99 202 -118 c 0
 202 -145 197 -164 189 -189 c 0
EndSplineSet
EndChar

StartChar: acute
Encoding: 180 180 53
Width: 202
Flags: HW
HStem: -95 190<58.0566 121.422>
VStem: 0 29<-1106.99 -1040.89 -950.942 -887.892 -784.942 -721.892 -602 -589 -424 -94.4021> 172 30<-869.512 -773.411 -704.677 -607.219 -525.509 -428.493 -359.445 -261.145 -180.342 -47.3776>
LayerCount: 2
Fore
SplineSet
172 -114 m 0
 172 -104 170 -93 167 -83 c 0
 163 -68 153 -68 137 -77 c 0
 118 -88 96 -95 73 -95 c 0
 67 -95 56 -94 50 -94 c 0
 37 -94 27 -97 27 -116 c 2
 27 -236 l 2
 27 -257 30 -269 43 -269 c 0
 57 -269 79 -262 95 -253 c 0
 145 -226 172 -181 172 -114 c 0
29 -935 m 0
 29 -942 32 -951 45 -951 c 0
 59 -951 77 -945 92 -937 c 0
 139 -914 172 -860 172 -816 c 0
 172 -807 172 -798 171 -790 c 0
 168 -768 158 -767 144 -780 c 0
 130 -794 116 -810 100 -826 c 0
 62 -861 29 -893 29 -935 c 0
29 -590 m 0
 29 -597 32 -606 45 -606 c 0
 59 -606 77 -600 92 -592 c 0
 139 -569 172 -515 172 -471 c 0
 172 -462 172 -453 171 -445 c 0
 168 -423 157 -423 144 -435 c 0
 130 -449 116 -465 100 -481 c 0
 62 -516 29 -548 29 -590 c 0
29 -424 m 0
 29 -431 32 -440 45 -440 c 0
 59 -440 77 -434 92 -426 c 0
 139 -403 172 -349 172 -305 c 0
 172 -295 172 -286 171 -278 c 0
 167 -250 154 -257 142 -272 c 0
 129 -287 114 -301 100 -313 c 0
 60 -347 29 -380 29 -424 c 0
29 -769 m 0
 29 -776 32 -785 45 -785 c 0
 59 -785 77 -779 92 -771 c 0
 139 -748 172 -694 172 -650 c 0
 172 -641 172 -632 171 -624 c 0
 168 -602 157 -601 144 -614 c 0
 130 -628 116 -644 100 -660 c 0
 62 -695 29 -727 29 -769 c 0
189 -186 m 0
 180 -213 183 -218 192 -247 c 0
 198 -265 202 -286 202 -303 c 0
 202 -324 199 -343 191 -363 c 0
 183 -382 186 -392 193 -416 c 0
 199 -434 202 -453 202 -469 c 0
 202 -490 199 -510 191 -529 c 0
 183 -548 186 -558 193 -582 c 0
 199 -600 202 -619 202 -635 c 0
 202 -656 198 -676 191 -695 c 0
 183 -714 186 -724 193 -748 c 0
 199 -766 202 -785 202 -801 c 0
 202 -870 162 -920 100 -979 c 0
 62 -1014 29 -1046 29 -1088 c 0
 29 -1107 26 -1107 12 -1107 c 0
 3 -1107 0 -1106 0 -1094 c 2
 0 -27 l 2
 0 37 61 95 128 95 c 0
 167 95 202 68 202 26 c 0
 202 12 199 -1 194 -14 c 0
 187 -31 185 -40 190 -55 c 0
 197 -76 202 -97 202 -115 c 0
 202 -142 197 -161 189 -186 c 0
EndSplineSet
EndChar

StartChar: cedilla
Encoding: 184 184 54
Width: 202
Flags: HW
LayerCount: 2
Back
SplineSet
-0 265 m 6
 -0 277 1 277 13 277 c 4
 27 277 27 276 27 264 c 6
 27 -250 l 6
 27 -263 26 -264 14 -264 c 4
 -0 -264 -0 -263 -0 -251 c 6
 -0 265 l 6
EndSplineSet
Fore
SplineSet
-0 265 m 6
 -0 277 1 277 15 277 c 4
 28 277 29 276 29 264 c 6
 29 -250 l 6
 29 -263 28 -264 14 -264 c 4
 -0 -264 -0 -263 -0 -251 c 6
 -0 265 l 6
EndSplineSet
EndChar

StartChar: Agrave
Encoding: 192 192 55
Width: 202
Flags: W
HStem: -95 190<59.623 143.943>
VStem: 175 27<94.8786 235.002 291.998 393.816 523.258 601.978> 347 30<104.381 282.073>
LayerCount: 2
Back
SplineSet
425.179 364.098 m 6
 436.455 368.202 436.797 367.262 440.901 355.985 c 4
 445.689 342.83 444.75 342.488 433.474 338.384 c 6
 64.1748 203.97 l 6
 51.959 199.523 50.6768 200.121 46.5723 211.397 c 4
 41.7842 224.554 42.7246 224.896 54 229 c 6
 425.179 364.098 l 6
442 370 m 2
 453.276 374.104 453.618 373.164 457.723 361.888 c 0
 462.511 348.732 461.571 348.391 450.295 344.286 c 2
 80.9961 209.872 l 2
 68.7803 205.426 67.498 206.023 63.3936 217.3 c 0
 58.6055 230.456 59.5459 230.798 70.8213 234.902 c 2
 442 370 l 2
0 -26 m 0
 0 37 62 95 129 95 c 0
 135 95 146 94 152 94 c 0
 165 94 175 97 175 116 c 2
 175 589 l 2
 175 600 178 602 187 602 c 0
 201 602 202 599 204 568 c 0
 212 450 377 415 377 196 c 0
 377 149 358 82 344 51 c 1
 336 36 312 41 320 62 c 0
 338 112 347 148 347 196 c 0
 347 285 309 340 266 374 c 0
 252 385 232 394 218 394 c 0
 205 394 202 384 202 363 c 2
 202 27 l 2
 202 -37 141 -95 74 -95 c 0
 35 -95 0 -68 0 -26 c 0
EndSplineSet
Fore
SplineSet
0 -26 m 0
 0 37 62 95 129 95 c 0
 135 95 146 94 152 94 c 0
 165 94 175 97 175 116 c 2
 175 219 l 2
 175 237 170 241 153 235 c 2
 74 206 l 2
 62 201 59 203 55 214 c 0
 51 227 51 229 62 233 c 2
 154 266 l 2
 170 272 175 278 175 294 c 2
 175 589 l 2
 175 600 178 602 187 602 c 0
 201 602 202 599 204 568 c 0
 209 488 287 446 336 359 c 0
 345 344 349 337 368 344 c 2
 433 368 l 2
 444 372 446 370 450 359 c 0
 455 346 455 344 443 340 c 2
 380 317 l 2
 365 312 361 306 365 291 c 0
 372 264 377 232 377 196 c 0
 377 149 358 82 344 51 c 1
 336 36 312 41 320 62 c 0
 338 112 347 148 347 196 c 0
 347 229 342 258 333 282 c 0
 328 295 320 295 303 289 c 2
 224 261 l 2
 208 255 202 245 202 230 c 2
 202 27 l 2
 202 -37 141 -95 74 -95 c 0
 35 -95 0 -68 0 -26 c 0
223 292 m 2
 289 316 l 2
 306 322 310 328 297 344 c 0
 287 355 277 365 266 374 c 0
 252 385 232 394 218 394 c 0
 205 394 202 384 202 363 c 2
 202 307 l 2
 202 292 207 286 223 292 c 2
EndSplineSet
EndChar

StartChar: uni00B9
Encoding: 185 185 56
Width: 202
Flags: HW
LayerCount: 2
Back
SplineSet
139.431 65.2744 m 6
 150.708 69.3789 151.05 68.4385 155.153 57.1621 c 4
 159.941 44.0068 159.003 43.665 147.726 39.5605 c 6
 -221.572 -94.8535 l 6
 -233.788 -99.2998 -235.071 -98.7021 -239.175 -87.4258 c 4
 -243.963 -74.2695 -243.023 -73.9277 -231.747 -69.8232 c 6
 139.431 65.2744 l 6
252.451 108.538 m 2
 263.728 112.642 264.069 111.702 268.857 98.5469 c 0
 273.304 86.3311 272.706 85.0488 261.43 80.9443 c 2
 -221.572 -94.8535 l 2
 -233.788 -99.2998 -235.069 -98.7021 -239.857 -85.5469 c 0
 -244.646 -72.3906 -243.706 -72.0488 -232.43 -67.9443 c 2
 252.451 108.538 l 2
EndSplineSet
Fore
SplineSet
139 67 m 2
 150 72 150 71 155 58 c 0
 159 45 159 44 148 40 c 2
 -222 -95 l 2
 -234 -99 -235 -99 -240 -86 c 0
 -245 -72 -244 -72 -232 -68 c 2
 139 67 l 2
EndSplineSet
EndChar

StartChar: Aacute
Encoding: 193 193 57
Width: 202
Flags: HW
LayerCount: 2
Back
SplineSet
441 429 m 6xc0
 452.276 433.104 452.618 432.164 456.723 420.888 c 4
 461.511 407.732 460.571 407.391 449.295 403.286 c 6
 79.9961 268.872 l 6
 67.7803 264.426 66.498 265.023 62.3936 276.3 c 4
 57.6055 289.456 58.5459 289.798 69.8213 293.902 c 6
 441 429 l 6xc0
0 -26 m 4
 0 37 62 95 129 95 c 4
 135 95 146 94 152 94 c 4
 165 94 175 97 175 116 c 6
 175 589 l 6
 175 601 178 602 187 602 c 4
 201 602 204 602 204 583 c 4
 204 541 237 509 275 474 c 4
 337 415 377 365 377 296 c 4
 377 279 373 258 367 240 c 4
 358 211 355 206 364 180 c 4
 372 155 377 126 377 92 c 4xd0
 377 45 363 -12 349 -43 c 5
 341 -58 318 -53 325 -32 c 4xe0
 341 18 347 44 347 92 c 4xd0
 347 164 319 213 267 246 c 4
 252 256 232 260 218 260 c 4
 205 260 202 250 202 229 c 6
 202 27 l 6
 202 -37 141 -95 74 -95 c 4
 35 -95 0 -68 0 -26 c 4
204 417 m 4
 204 373 235 340 275 306 c 4
 289 294 304 280 317 265 c 4
 329 250 342 243 346 271 c 4
 347 279 347 288 347 298 c 4
 347 342 314 396 267 419 c 4
 252 427 234 433 220 433 c 4
 207 433 204 424 204 417 c 4
EndSplineSet
Fore
SplineSet
202 229 m 2xd0
 202 27 l 2
 202 -37 141 -95 74 -95 c 0
 35 -95 0 -68 0 -26 c 0
 0 37 62 95 129 95 c 0
 135 95 146 94 152 94 c 0
 165 94 175 97 175 116 c 2
 175 280 l 2
 175 298 170 300 156 295 c 2
 81 268 l 2
 69 263 66 265 62 276 c 0
 58 289 58 291 69 295 c 2
 153 326 l 2
 167 331 175 337 175 357 c 2
 175 589 l 2
 175 601 178 602 187 602 c 0
 201 602 204 602 204 583 c 0
 204 541 237 509 275 474 c 0
 297 453 316 433 332 414 c 0
 343 399 350 397 369 404 c 2
 440 430 l 2
 451 434 453 432 457 421 c 0
 462 408 462 406 450 402 c 2
 381 377 l 2
 368 372 361 368 367 353 c 0
 373 335 377 316 377 296 c 0
 377 279 373 258 367 240 c 0
 358 211 355 206 364 180 c 0
 372 155 377 126 377 92 c 0xd0
 377 45 363 -12 349 -43 c 1
 341 -58 318 -53 325 -32 c 0xe0
 341 18 346 44 347 92 c 0
 347 167 320 219 270 246 c 0
 254.138 254.565 232 262 218 262 c 0
 205 262 202.104 250 202 229 c 2xd0
298 398 m 0
 288 406 278 414 267 419 c 0
 252 427 234 433 220 433 c 0
 207 433 204 424 204 417 c 0
 204 400 209 385 217 370 c 0
 225 356 232 354 248 360 c 2
 294 377 l 2
 308 382 310 387 298 398 c 0
307 350 m 2
 268 336 l 2
 254 331 252 326 263 316 c 2
 275 306 l 0
 289 294 304 280 317 265 c 0
 329 250 342 243 346 271 c 0
 347 279 347 288 347 298 c 0
 347 312 344 327 338 342 c 0
 331 357 327 357 307 350 c 2
EndSplineSet
EndChar

StartChar: Egrave
Encoding: 200 200 58
Width: 202
Flags: W
HStem: -95 190<59.623 143.943>
VStem: 175 27<94.8786 314.439 362.999 518.816 651.479 726.978> 347 30<230.251 360.383>
LayerCount: 2
Back
SplineSet
453.467 423.979 m 6
 465.058 427.085 465.316 426.119 468.422 414.527 c 4
 472.045 401.005 471.08 400.746 459.488 397.641 c 6
 79.8799 295.924 l 6
 67.3232 292.56 66.0977 293.267 62.9922 304.857 c 4
 59.3682 318.382 60.335 318.64 71.9258 321.746 c 6
 453.467 423.979 l 6
0 -26 m 0
 0 37 62 95 129 95 c 0
 135 95 146 94 152 94 c 0
 165 94 175 97 175 116 c 2
 175 714 l 2
 175 725 178 727 187 727 c 0
 201 727 202 724 204 693 c 0
 212 575 377 540 377 321 c 0
 377 274 358 207 344 176 c 1
 336 161 312 166 320 187 c 0
 338 237 347 273 347 321 c 0
 347 410 309 465 266 499 c 0
 252 510 232 519 218 519 c 0
 205 519 202 509 202 488 c 2
 202 27 l 2
 202 -37 141 -95 74 -95 c 0
 35 -95 0 -68 0 -26 c 0
EndSplineSet
Fore
SplineSet
0 -26 m 0
 0 37 62 95 129 95 c 0
 135 95 146 94 152 94 c 0
 165 94 175 97 175 116 c 2
 175 295 l 2
 175 314 171 319 152 314 c 2
 81 295 l 2
 68 292 66 293 63 305 c 0
 59 318 59 320 71 323 c 2
 146 343 l 2
 165 348 175 352 175 369 c 2
 175 714 l 2
 175 725 178 727 187 727 c 4
 201 727 202 724 204 693 c 0
 211 597 321 556 362 426 c 0
 368 406 375 404 392 409 c 2
 452 425 l 2
 464 428 465 426 468 415 c 0
 472 401 472 400 460 397 c 2
 397 380 l 2
 378 374 375 367 376 351 c 0
 377 342 377 332 377 321 c 0
 377 274 358 207 344 176 c 1
 336 161 312 166 320 187 c 0
 338 237 347 273 347 321 c 0
 347 327 347 333 346 339 c 0
 345 363 341 365 316 358 c 2
 228 334 l 2
 209 329 202 328 202 308 c 2
 202 27 l 2
 202 -37 141 -95 74 -95 c 0
 35 -95 0 -68 0 -26 c 0
223 363 m 2
 305 385 l 2
 331 392 336 400 328 419 c 0
 313 454 290 480 266 499 c 0
 252 510 232 519 218 519 c 0
 205 519 202 509 202 488 c 2
 202 382 l 2
 202 365 206 359 223 363 c 2
EndSplineSet
EndChar

StartChar: Eth
Encoding: 208 208 59
Width: 202
Flags: HW
HStem: -95 190<59.623 143.943>
VStem: 175 27<94.8786 315.63 361.821 518.816 651.479 726.978> 347 30<230.251 361.507>
LayerCount: 2
Back
SplineSet
0 -26 m 4
 0 37 62 95 129 95 c 4
 135 95 146 94 152 94 c 4
 165 94 175 97 175 116 c 6
 175 420 l 6
 175 439 170 444 151 439 c 6
 80 420 l 6
 67 417 66 418 63 430 c 4
 59 443 60 444 72 447 c 6
 147 467 l 6
 166 472 175 477 175 494 c 6
 175 839 l 6
 175 850 178 852 187 852 c 4
 201 852 202 849 204 818 c 4
 211 722 321 681 362 551 c 4
 368 531 376 528 393 533 c 6
 453 549 l 6
 465 552 465 551 468 540 c 4
 472 526 471 525 459 522 c 6
 396 505 l 6
 377 499 375 492 376 476 c 4
 377 467 377 457 377 446 c 4
 377 399 358 332 344 301 c 5
 336 286 312 291 320 312 c 4
 338 362 347 398 347 446 c 4
 347 452 347 458 346 464 c 4
 345 488 340 490 315 483 c 6
 227 459 l 6
 208 454 202 453 202 433 c 6
 202 27 l 6
 202 -37 141 -95 74 -95 c 4
 35 -95 0 -68 0 -26 c 4
224 487 m 6
 306 509 l 6
 332 516 336 525 328 544 c 4
 313 579 290 605 266 624 c 4
 252 635 232 644 218 644 c 4
 205 644 202 634 202 613 c 6
 202 507 l 6
 202 490 207 483 224 487 c 6
EndSplineSet
Fore
SplineSet
0 -26 m 0
 0 37 62 95 129 95 c 0
 135 95 146 94 152 94 c 0
 165 94 175 97 175 116 c 2
 175 420 l 2
 175 439 171 443 152 438 c 2
 81 419 l 2
 68 416 66 418 63 430 c 0
 59 443 59 445 71 448 c 2
 146 468 l 2
 165 473 175 477 175 494 c 2
 175 839 l 2
 175 850 178 852 187 852 c 0
 201 852 202 849 204 818 c 0
 211 722 321 681 362 551 c 0
 368 531 375 529 392 534 c 2
 452 550 l 2
 464 553 465 551 468 540 c 0
 472 526 472 524 460 521 c 2
 397 504 l 2
 378 498 375 492 376 476 c 0
 377 467 377 457 377 446 c 0
 377 399 358 332 344 301 c 1
 336 286 312 291 320 312 c 0
 338 362 347 398 347 446 c 0
 347 452 347 458 346 464 c 0
 345 488 341 489 316 482 c 2
 228 458 l 2
 209 453 202 453 202 433 c 2
 202 27 l 2
 202 -37 141 -95 74 -95 c 0
 35 -95 0 -68 0 -26 c 0
223 488 m 2
 305 510 l 2
 331 517 336 525 328 544 c 0
 313 579 290 605 266 624 c 0
 252 635 232 644 218 644 c 0
 205 644 202 634 202 613 c 2
 202 507 l 2
 202 490 206 484 223 488 c 2
EndSplineSet
EndChar

StartChar: Eacute
Encoding: 201 201 60
Width: 202
Flags: W
HStem: -95 190<59.623 143.943>
VStem: 0 202<-37.2618 37.5247> 175 27<94.8786 195.001 244.391 386.782 498.268 557.497 665.99 726.997> 325 24<74.9855 113.525> 347 30<119.642 241.439 379.145 477.429>
LayerCount: 2
Back
SplineSet
454.541 305.233 m 6xc0
 466.132 308.34 466.391 307.373 469.496 295.782 c 4
 473.119 282.26 472.154 282.001 460.563 278.895 c 6
 80.9551 177.179 l 6
 68.3975 173.814 67.1719 174.521 64.0654 186.112 c 4
 60.4424 199.637 61.4092 199.895 73 203 c 6
 454.541 305.233 l 6xc0
0 -26 m 4
 0 37 62 95 129 95 c 4
 135 95 146 94 152 94 c 4
 165 94 175 97 175 116 c 6
 175 714 l 6
 175 726 178 727 187 727 c 4
 201 727 204 727 204 708 c 4
 204 666 237 634 275 599 c 4
 337 540 377 490 377 421 c 4
 377 404 373 383 367 365 c 4
 358 336 355 331 364 305 c 4
 372 280 377 251 377 217 c 4xd0
 377 170 363 113 349 82 c 5
 341 67 318 72 325 93 c 4xe0
 341 143 347 169 347 217 c 4xd0
 347 289 319 338 267 371 c 4
 252 381 232 385 218 385 c 4
 205 385 202 375 202 354 c 6
 202 27 l 6
 202 -37 141 -95 74 -95 c 4
 35 -95 0 -68 0 -26 c 4
204 542 m 4
 204 498 235 465 275 431 c 4
 289 419 304 405 317 390 c 4
 329 375 342 368 346 396 c 4
 347 404 347 413 347 423 c 4
 347 467 314 521 267 544 c 4
 252 552 234 558 220 558 c 4
 207 558 204 549 204 542 c 4
EndSplineSet
Fore
SplineSet
270 371 m 4xa0
 254 380 232 387 218 387 c 0
 205 387 202 375 202 354 c 2
 202 261 l 6
 202 241 207 240 222 244 c 6
 316 269 l 6
 335 274 340 280 332 298 c 4
 320 323 303 353 270 371 c 4xa0
204 542 m 0
 204 498 235 465 275 431 c 0
 289 419 304 405 317 390 c 0
 329 375 342 368 346 396 c 0
 347 404 347 413 347 423 c 0x88
 347 467 314 521 267 544 c 0
 252 552 234 558 220 558 c 0
 207 558 204 549 204 542 c 0
0 -26 m 0xc0
 0 37 62 95 129 95 c 0
 135 95 146 94 152 94 c 0
 165 94 175 97 175 116 c 2
 175 180 l 6
 175 199 168 199 153 195 c 6
 82 176 l 6
 69 173 67 175 64 186 c 4
 60 200 60 201 72 204 c 6
 151 225 l 6
 167 230 175 235 175 255 c 6
 175 714 l 2
 175 726 178 727 187 727 c 0
 201 727 204 727 204 708 c 0
 204 666 237 634 275 599 c 0
 337 540 377 490 377 421 c 0
 377 404 373 383 367 365 c 4
 358 336 356 331 364 305 c 4
 369 289 373 285 389 289 c 6
 454 306 l 6
 465 309 466 307 469 296 c 4
 473 282 473 281 462 278 c 6
 396 260 l 6
 382 256 376 253 377 235 c 4
 377 229 377 223 377 217 c 4xa8
 377 170 363 113 349 82 c 1
 341 67 318 72 325 93 c 0x90
 341 143 347 169 347 217 c 4
 347 243 341 246 320 240 c 6
 223 214 l 6
 207 210 202 205 202 188 c 6xa8
 202 27 l 2
 202 -37 141 -95 74 -95 c 0
 35 -95 0 -68 0 -26 c 0xc0
EndSplineSet
EndChar

StartChar: Ntilde
Encoding: 209 209 61
Width: 202
Flags: HW
HStem: -95 190<59.623 143.943>
VStem: 0 202<-37.2618 37.5247> 175 27<94.8786 195.001 244.391 386.782 498.268 557.497 665.99 726.997> 325 24<74.9855 113.525> 347 30<119.642 241.439 379.145 477.429>
LayerCount: 2
Back
SplineSet
204 668 m 4xd0
 204 624 235 591 275 557 c 4
 289 545 304 531 317 516 c 4
 329 501 342 494 346 522 c 4
 347 530 347 539 347 549 c 4
 347 593 314 647 267 670 c 4
 252 678 234 684 220 684 c 4
 207 684 204 675 204 668 c 4xd0
0 -26 m 4
 0 37 62 95 129 95 c 4
 135 95 146 94 152 94 c 4
 165 94 175 97 175 116 c 6
 175 307 l 6
 175 326 167 326 152 322 c 6
 81 303 l 6
 68 300 67 301 64 312 c 4
 60 326 61 326 73 329 c 6
 152 350 l 6
 168 355 175 360 175 380 c 6
 175 840 l 6
 175 852 178 853 187 853 c 4
 201 853 204 853 204 834 c 4
 204 792 237 760 275 725 c 4
 337 666 377 616 377 547 c 4
 377 530 373 509 367 491 c 4
 358 462 356 457 364 431 c 4
 369 415 374 410 390 414 c 6
 455 431 l 6
 466 434 466 433 469 422 c 4
 473 408 472 408 461 405 c 6
 395 387 l 6
 381 383 376 379 377 361 c 4
 377 355 377 349 377 343 c 4xd0
 377 296 363 239 349 208 c 5
 341 193 318 198 325 219 c 4xe0
 341 269 347 295 347 343 c 4
 347 369 340 373 319 367 c 6
 222 341 l 6
 206 337 202 332 202 315 c 6
 202 27 l 6
 202 -37 141 -95 74 -95 c 4
 35 -95 0 -68 0 -26 c 4
223 369 m 6
 317 394 l 6
 336 399 339 406 332 424 c 4
 318 454 297 478 267 497 c 4
 252 507 232 511 218 511 c 4
 205 511 202 501 202 480 c 6
 202 386 l 6
 202 366 208 365 223 369 c 6
EndSplineSet
Fore
SplineSet
270 497 m 0xa0
 254 506 232 513 218 513 c 0
 205 513 202 501 202 480 c 2
 202 387 l 2
 202 367 207 366 222 370 c 2
 316 395 l 2
 335 400 340 406 332 424 c 0
 320 449 303 479 270 497 c 0xa0
204 668 m 0
 204 624 235 591 275 557 c 0
 289 545 304 531 317 516 c 0
 329 501 342 494 346 522 c 0
 347 530 347 539 347 549 c 0x88
 347 593 314 647 267 670 c 0
 252 678 234 684 220 684 c 0
 207 684 204 675 204 668 c 0
0 -26 m 0xc0
 0 37 62 95 129 95 c 0
 135 95 146 94 152 94 c 0
 165 94 175 97 175 116 c 2
 175 306 l 2
 175 325 168 325 153 321 c 2
 82 302 l 2
 69 299 67 301 64 312 c 0
 60 326 60 327 72 330 c 2
 151 351 l 2
 167 356 175 361 175 381 c 2
 175 840 l 2
 175 852 178 853 187 853 c 4
 201 853 204 853 204 834 c 0
 204 792 237 760 275 725 c 0
 337 666 377 616 377 547 c 0
 377 530 373 509 367 491 c 0
 358 462 356 457 364 431 c 0
 369 415 373 411 389 415 c 2
 454 432 l 2
 465 435 466 433 469 422 c 0
 473 408 473 407 462 404 c 2
 396 386 l 2
 382 382 376 379 377 361 c 0
 377 355 377 349 377 343 c 0xa8
 377 296 363 239 349 208 c 1
 341 193 318 198 325 219 c 0x90
 341 269 347 295 347 343 c 0
 347 369 341 372 320 366 c 2
 223 340 l 2
 207 336 202 331 202 314 c 2xa8
 202 27 l 2
 202 -37 141 -95 74 -95 c 0
 35 -95 0 -68 0 -26 c 0xc0
EndSplineSet
EndChar

StartChar: Ecircumflex
Encoding: 202 202 62
Width: 202
Flags: W
HStem: -95 190<59.623 143.943>
VStem: 0 202<-37.2618 37.5247> 175 29<94.6618 227.991 333.017 397.942 501.703 563.942 666.892 732.991> 325 24<-85.0145 -46.4747> 347 30<-40.7273 141.568 219.145 317.445 387.927 472.297>
LayerCount: 2
Fore
SplineSet
175 411 m 2xa0
 175 429 170 431 156 426 c 2
 81 399 l 2
 69 394 66 396 62 407 c 0
 58 420 58 422 69 426 c 2
 153 457 l 2
 167 462 175 468 175 488 c 2
 175 720 l 2
 175 732 178 733 187 733 c 4
 201 733 204 733 204 714 c 0
 204 672 236 640 275 605 c 0
 297 584 316 564 332 545 c 0
 343 530 350 528 369 535 c 2
 440 561 l 2
 451 565 453 563 457 552 c 0
 462 539 462 537 450 533 c 2
 381 508 l 2
 368 503 361 499 367 484 c 0
 373 466 377 447 377 427 c 0
 376 411 374 392 368 374 c 0
 361 350 358 340 366 321 c 0
 374 301 377 282 377 261 c 0
 377 244 373 223 367 205 c 0
 358 176 355 171 364 145 c 0
 372 120 377 91 377 57 c 0xa8
 377 10 363 -47 349 -78 c 1
 341 -93 318 -88 325 -67 c 0x90
 341 -17 347 9 347 58 c 0
 347 133 320 185 270 212 c 0
 254.138 220.565 232 228 218 228 c 0
 205 228 202 216 202 195 c 2
 202 27 l 2
 202 -37 141 -95 74 -95 c 0
 35 -95 0 -68 0 -26 c 0xc8
 0 37 62 95 129 95 c 0
 135 95 146 94 152 94 c 0
 165 94 175 97 175 116 c 2
 175 411 l 2xa0
267 550 m 0
 251 558 234 564 220 564 c 0
 207 564 203 555 204 548 c 0
 204 531 209 516 217 501 c 0
 225 487 232 485 248 491 c 2
 294 508 l 2
 308 513 310 518 298 529 c 0
 288 537 278 545 267 550 c 0
275 439 m 0
 291 423 305 407 319 393 c 0
 332 381 343 381 346 403 c 0
 347 411 346 420 347 429 c 0
 347 443 344 458 338 473 c 0
 331 488 327 488 307 481 c 2
 268 467 l 2
 254 462 253.579 457.517 265 448 c 2
 275 439 l 0
204 382 m 0
 204 338 235 305 275 271 c 0
 289 259 304 245 317 230 c 0
 329 215 342 208 346 236 c 0
 347 244 347 253 347 263 c 0
 347 307 314 361 267 384 c 0
 252 392 234 398 220 398 c 0
 207 398 204 389 204 382 c 0
EndSplineSet
EndChar

StartChar: Ograve
Encoding: 210 210 63
Width: 202
Flags: W
HStem: -95 190<59.623 143.943>
VStem: 0 202<-37.2618 37.5247> 175 27<94.8786 185.516 227.25 347.782 458.268 517.497 625.99 683.497 791.99 852.997> 325 24<34.9855 73.5253> 347 30<79.6418 215.955 339.145 437.445 506.493 603.429>
LayerCount: 2
Back
SplineSet
457.807 268.526 m 6xc0
 469.507 271.54 469.334 270.555 472 256.884 c 4
 473.682 243.388 473.508 242.402 461.981 240.373 c 6
 74.1602 171.674 l 6
 61.6475 169.818 60.6621 169.992 57.9961 183.663 c 4
 55.5029 198.318 56.4873 198.145 69 200 c 6
 457.807 268.526 l 6xc0
202 315 m 6
 202 27 l 6
 202 -37 141 -95 74 -95 c 4
 35 -95 0 -68 0 -26 c 4
 0 37 62 95 129 95 c 4
 135 95 146 94 152 94 c 4
 165 94 175 97 175 116 c 6
 175 840 l 6
 175 852 178 853 187 853 c 4
 201 853 204 853 204 834 c 4
 204 792 237 760 275 725 c 4
 337 666 377 616 377 547 c 4
 377 531 374 512 368 494 c 4
 361 470 358 460 366 441 c 4
 374 421 377 402 377 381 c 4
 377 364 373 343 367 325 c 4
 358 296 355 291 364 265 c 4
 372 240 377 211 377 177 c 4xd0
 377 130 363 73 349 42 c 5
 341 27 318 32 325 53 c 4xe0
 341 103 347 129 347 178 c 4xd0
 347 253 320 305 270 332 c 4
 254.138 340.565 232 348 218 348 c 4
 205 348 202 336 202 315 c 6
204 668 m 4
 204 626 237 594 275 559 c 4
 291 543 305 527 319 513 c 4
 332 501 343 501 346 523 c 4
 347 531 347 540 347 549 c 4
 347 593 314 647 267 670 c 4
 252 678 234 684 220 684 c 4
 207 684 204 675 204 668 c 4
204 502 m 4
 204 458 235 425 275 391 c 4
 289 379 304 365 317 350 c 4
 329 335 342 328 346 356 c 4
 347 364 347 373 347 383 c 4
 347 427 314 481 267 504 c 4
 252 512 234 518 220 518 c 4
 207 518 204 509 204 502 c 4
EndSplineSet
Fore
SplineSet
204 502 m 0x88
 204 458 235 425 275 391 c 0
 289 379 304 365 317 350 c 0
 329 335 342 328 346 356 c 0
 347 364 347 373 347 383 c 0
 347 427 314 481 267 504 c 0
 252 512 234 518 220 518 c 0
 207 518 204 509 204 502 c 0x88
204 668 m 0
 204 626 237 594 275 559 c 0
 291 543 305 527 319 513 c 0
 332 501 343 501 346 523 c 0
 347 531 347 540 347 549 c 0
 347 593 314 647 267 670 c 0
 252 678 234 684 220 684 c 0
 207 684 204 675 204 668 c 0
458 269 m 2
 470 272 469 271 472 257 c 0
 474 243 474 242 462 240 c 2
 395 229 l 2
 380 226 375 220 376 201 c 0
 377 194 377 185 377 177 c 0xa8
 377 130 363 73 349 42 c 1
 341 27 318 32 325 53 c 0x90
 341 103 347 129 347 178 c 0
 347 186 347 193 346 200 c 0
 345 218 337 218 319 215 c 2
 222 198 l 2
 204 195 202 188 202 174 c 2xa8
 202 27 l 2
 202 -37 141 -95 74 -95 c 0
 35 -95 0 -68 0 -26 c 0xc0
 0 37 62 95 129 95 c 0
 135 95 146 94 152 94 c 0
 165 94 175 97 175 116 c 2
 175 170 l 2
 175 186 169 189 151 185 c 2
 74 172 l 2
 62 170 61 170 58 184 c 0
 56 198 56 198 69 200 c 2
 149 214 l 2
 170 218 175 223 175 241 c 2
 175 840 l 2xa0
 175 852 178 853 187 853 c 0
 201 853 204 853 204 834 c 0
 204 792 237 760 275 725 c 0
 337 666 377 616 377 547 c 0
 377 531 374 512 368 494 c 0
 361 470 358 460 366 441 c 0
 374 421 377 402 377 381 c 0
 377 364 373 343 367 325 c 0
 360 302 356 294 360 278 c 0
 365 258 371 253 388 256 c 2
 458 269 l 2
327 274 m 0
 314 299 295 319 270 332 c 0
 254 341 232 348 218 348 c 0
 205 348 202 336 202 315 c 2
 202 244 l 2
 202 231 203 224 222 227 c 2
 311 243 l 2
 336 247 336 256 327 274 c 0
EndSplineSet
EndChar

StartChar: Oacute
Encoding: 211 211 64
Width: 202
Flags: W
HStem: -95 190<59.623 143.943>
VStem: 0 202<-37.2618 37.5247> 175 29<94.6618 219.991 325.017 389.942 492.892 555.942 658.305 721.942 824.892 890.991> 325 24<-93.0145 -54.4747> 347 30<-48.7273 133.568 211.145 309.445 378.493 475.509 544.316 638.743>
LayerCount: 2
Back
SplineSet
446 717 m 6x80
 457 722 457 721 462 708 c 4
 466 695 466 694 455 690 c 6
 85 555 l 6
 73 551 72 551 67 564 c 4
 62 578 63 578 75 582 c 6
 446 717 l 6x80
202 187 m 6xc8
 202 27 l 6
 202 -37 141 -95 74 -95 c 4
 35 -95 0 -68 0 -26 c 4xc8
 0 37 62 95 129 95 c 4
 135 95 146 94 152 94 c 4
 165 94 175 97 175 116 c 6
 175 878 l 6
 175 890 178 891 187 891 c 4
 201 891 204 891 204 872 c 4
 204 830 237 798 275 763 c 4
 337 704 377 654 377 585 c 4
 377 569 374 550 368 532 c 4
 361 508 358 498 366 479 c 4
 374 460 377 440 377 419 c 4
 377 403 374 384 368 366 c 4
 361 342 358 332 366 313 c 4
 374 293 377 274 377 253 c 4
 377 236 373 215 367 197 c 4
 358 168 355 163 364 137 c 4
 372 112 377 83 377 49 c 4xa8
 377 2 363 -55 349 -86 c 5
 341 -101 318 -96 325 -75 c 4x90
 341 -25 347 1 347 50 c 4
 347 125 320 177 270 204 c 4
 254.138 212.565 232 220 218 220 c 4
 205 220 202 208 202 187 c 6xc8
204 706 m 4xa8
 204 664 237 632 275 597 c 4
 291 581 305 565 319 551 c 4
 332 538 343 539 346 561 c 4
 347 569 347 578 347 587 c 4
 347 631 314 685 267 708 c 4
 252 716 234 722 220 722 c 4
 207 722 204 713 204 706 c 4xa8
204 374 m 4
 204 330 235 297 275 263 c 4
 289 251 304 237 317 222 c 4
 329 207 342 200 346 228 c 4
 347 236 347 245 347 255 c 4
 347 299 314 353 267 376 c 4
 252 384 234 390 220 390 c 4
 207 390 204 381 204 374 c 4
204 540 m 4
 204 498 237 466 275 431 c 4
 291 415 305 399 319 385 c 4
 332 373 343 373 346 395 c 4
 347 403 347 412 347 421 c 4
 347 465 314 519 267 542 c 4
 252 550 234 556 220 556 c 4
 207 556 204 547 204 540 c 4
EndSplineSet
Fore
SplineSet
204 540 m 0xa8
 204 498 237 466 275 431 c 0
 291 415 305 399 319 385 c 0
 332 373 343 373 346 395 c 0
 347 403 347 412 347 421 c 0
 347 465 314 519 267 542 c 0
 252 550 234 556 220 556 c 0
 207 556 204 547 204 540 c 0xa8
204 374 m 0
 204 330 235 297 275 263 c 0
 289 251 304 237 317 222 c 0
 329 207 342 200 346 228 c 0
 347 236 347 245 347 255 c 0
 347 299 314 353 267 376 c 0
 252 384 234 390 220 390 c 0
 207 390 204 381 204 374 c 0
202 187 m 2xc8
 202 27 l 2
 202 -37 141 -95 74 -95 c 0
 35 -95 0 -68 0 -26 c 0xc8
 0 37 62 95 129 95 c 0
 135 95 146 94 152 94 c 0
 165 94 175 97 175 116 c 2
 175 567 l 2
 175 583 170 586 153 580 c 2
 85 555 l 2
 73 551 72 551 67 564 c 0
 62 578 63 578 75 582 c 2
 152 610 l 2
 170 617 175 622 175 640 c 2
 175 878 l 2
 175 890 178 891 187 891 c 0
 201 891 204 891 204 872 c 0
 204 830 237 798 275 763 c 0
 298 741 318 720 334 699 c 0
 344 687 349 682 369 689 c 2
 446 717 l 2
 457 722 457 721 462 708 c 0
 466 695 466 694 455 690 c 2
 383 664 l 2
 366 657 364 651 368 638 c 0
 374 621 377 604 377 585 c 0
 377 569 374 550 368 532 c 0
 361 508 358 498 366 479 c 0
 374 460 377 440 377 419 c 0
 377 403 374 384 368 366 c 0
 361 342 358 332 366 313 c 0
 374 293 377 274 377 253 c 0
 377 236 373 215 367 197 c 0
 358 168 355 163 364 137 c 0
 372 112 377 83 377 49 c 0xa8
 377 2 363 -55 349 -86 c 1
 341 -101 318 -96 325 -75 c 0x90
 341 -25 347 1 347 50 c 0
 347 125 320 177 270 204 c 0
 254 213 232 220 218 220 c 0
 205 220 202 208 202 187 c 2xc8
300 685 m 0
 290 694 279 702 267 708 c 0
 252 716 234 722 220 722 c 0
 207 722 204 713 204 706 c 0xa0
 204 689 209 674 218 659 c 0
 227 644 234 640 255 648 c 2
 295 662 l 2
 311 668 310 676 300 685 c 0
314 639 m 2
 276 625 l 2
 259 618 259 612 275 597 c 0
 291 581 305 565 319 551 c 0
 332 538 343 539 346 561 c 0
 347 569 347 578 347 587 c 0x88
 347 601 344 615 338 629 c 0
 333 643 327 643 314 639 c 2
EndSplineSet
EndChar

StartChar: Ocircumflex
Encoding: 212 212 65
Width: 202
Flags: W
HStem: -95 190<59.623 143.943>
VStem: 0 202<-37.2618 37.5247> 175 29<94.6618 216.991 323.017 387.942 490.892 553.942 656.892 719.942 823.406 885.942 988.892 1054.99> 325 24<-95.0145 -56.4747> 347 30<-50.7306 130.475 209.145 307.445 376.493 473.509 542.316 639.509 708.509 803.469>
LayerCount: 2
Back
SplineSet
442 881 m 6x80
 453 886 453 885 458 872 c 4
 462 859 462 858 451 854 c 6
 81 719 l 6
 69 715 68 715 63 728 c 4
 58 742 59 742 71 746 c 6
 442 881 l 6x80
202 184 m 6xc8
 202 27 l 6
 202 -37 141 -95 74 -95 c 4
 35 -95 0 -68 0 -26 c 4xc8
 0 37 62 95 129 95 c 4
 135 95 146 94 152 94 c 4
 165 94 175 97 175 116 c 6
 175 1042 l 6
 175 1054 178 1055 187 1055 c 4
 201 1055 204 1055 204 1036 c 4
 204 994 237 962 275 927 c 4
 337 868 377 818 377 749 c 4
 377 733 374 714 368 696 c 4
 361 672 358 662 366 643 c 4
 373 624 377 604 377 583 c 4
 377 567 374 548 368 530 c 4
 361 506 358 496 366 477 c 4
 374 458 377 438 377 417 c 4
 377 401 374 382 368 364 c 4
 361 340 358 330 366 311 c 4
 374 291 377 272 377 251 c 4
 377 234 373 213 367 195 c 4
 358 166 355 161 364 135 c 4
 372 110 377 81 377 47 c 4xa8
 377 0 363 -57 349 -88 c 5
 341 -103 318 -98 325 -77 c 4x90
 341 -27 347 -1 347 47 c 4
 347 122 320 174 270 201 c 4
 254.138 209.565 232 217 218 217 c 4
 205 217 202 205 202 184 c 6xc8
204 870 m 4xa8
 204 828 237 796 275 761 c 4
 291 745 305 729 319 715 c 4
 333 702 343 703 346 725 c 4
 347 733 347 742 347 751 c 4
 347 795 314 849 267 872 c 4
 252 880 234 886 220 886 c 4
 207 886 204 877 204 870 c 4xa8
204 538 m 4
 204 496 237 464 275 429 c 4
 291 413 305 397 319 383 c 4
 332 371 343 371 346 393 c 4
 347 401 347 410 347 419 c 4
 347 463 314 517 267 540 c 4
 252 548 234 554 220 554 c 4
 207 554 204 545 204 538 c 4
204 372 m 4
 204 328 235 295 275 261 c 4
 289 249 304 235 317 220 c 4
 329 205 342 198 346 226 c 4
 347 234 347 243 347 253 c 4
 347 297 314 351 267 374 c 4
 252 382 234 388 220 388 c 4
 207 388 204 379 204 372 c 4
204 704 m 4
 204 662 237 630 275 595 c 4
 291 579 305 563 319 549 c 4
 332 536 343 537 346 559 c 4
 347 567 347 576 347 585 c 4
 347 629 314 683 267 706 c 4
 252 714 234 720 220 720 c 4
 207 720 204 711 204 704 c 4
EndSplineSet
Fore
SplineSet
204 704 m 0xa8
 204 662 237 630 275 595 c 0
 291 579 305 563 319 549 c 0
 332 536 343 537 346 559 c 0
 347 567 347 576 347 585 c 0
 347 629 314 683 267 706 c 0
 252 714 234 720 220 720 c 0
 207 720 204 711 204 704 c 0xa8
204 372 m 0
 204 328 235 295 275 261 c 0
 289 249 304 235 317 220 c 0
 329 205 342 198 346 226 c 0
 347 234 347 243 347 253 c 0
 347 297 314 351 267 374 c 0
 252 382 234 388 220 388 c 0
 207 388 204 379 204 372 c 0
204 538 m 0
 204 496 237 464 275 429 c 0
 291 413 305 397 319 383 c 0
 332 371 343 371 346 393 c 0
 347 401 347 410 347 419 c 0
 347 463 314 517 267 540 c 0
 252 548 234 554 220 554 c 0
 207 554 204 545 204 538 c 0
202 184 m 2xc8
 202 27 l 2
 202 -37 141 -95 74 -95 c 0
 35 -95 0 -68 0 -26 c 0xc8
 0 37 62 95 129 95 c 0
 135 95 146 94 152 94 c 0
 165 94 175 97 175 116 c 2
 175 731 l 2
 175 748 171 752 155 746 c 2
 81 719 l 2
 69 715 68 715 63 728 c 0
 58 742 59 742 71 746 c 2
 151 775 l 2
 169 782 175 786 175 807 c 2
 175 1042 l 2
 175 1054 178 1055 187 1055 c 0
 201 1055 204 1055 204 1036 c 0
 204 994 237 962 275 927 c 0
 297 906 316 887 331 867 c 0
 345 850 349 847 371 855 c 2
 442 881 l 2
 453 886 453 885 458 872 c 0
 462 859 462 858 451 854 c 2
 383 829 l 2
 367 823 363 820 369 800 c 0
 374 784 377 767 377 749 c 0
 377 733 374 714 368 696 c 0
 361 672 358 662 366 643 c 0
 373 624 377 604 377 583 c 0
 377 567 374 548 368 530 c 0
 361 506 358 496 366 477 c 0
 374 458 377 438 377 417 c 0
 377 401 374 382 368 364 c 0
 361 340 358 330 366 311 c 0
 374 291 377 272 377 251 c 0
 377 234 373 213 367 195 c 0
 358 166 355 161 364 135 c 0
 372 110 377 81 377 47 c 0xa8
 377 0 363 -57 349 -88 c 1
 341 -103 318 -98 325 -77 c 0x90
 341 -27 347 -1 347 47 c 0
 347 122 320 174 270 201 c 0
 254 210 232 217 218 217 c 0
 205 217 202 205 202 184 c 2xc8
298 851 m 0
 289 859 278 867 267 872 c 0
 252 880 234 886 220 886 c 0
 207 886 204 877 204 870 c 0xa0
 204 852 210 837 219 822 c 0
 228 807 234 805 252 812 c 2
 293 827 l 2
 311 833 312 838 298 851 c 0
312 803 m 2
 274 789 l 2
 253 782 258 777 275 761 c 0
 291 745 305 729 319 715 c 0
 333 702 343 703 346 725 c 0
 347 733 347 742 347 751 c 0x88
 347 765 344 780 337 795 c 0
 332 807 328 809 312 803 c 2
EndSplineSet
EndChar

StartChar: agrave
Encoding: 224 224 67
Width: 202
Flags: HMW
LayerCount: 2
Back
SplineSet
280 -149 m 6
 291 -144 291 -145 296 -158 c 4
 300 -171 300 -172 289 -176 c 6
 -81 -311 l 6
 -93 -315 -94 -315 -99 -302 c 4
 -104 -288 -103 -288 -91 -284 c 6
 280 -149 l 6
12 -602 m 4
 3 -602 0 -600 0 -589 c 6
 0 -27 l 6
 0 37 61 95 128 95 c 4
 167 95 202 68 202 26 c 4
 202 6 195 -14 184 -32 c 4
 174 -48 172 -57 178 -75 c 4
 190 -109 202 -159 202 -196 c 4
 202 -415 37 -450 29 -568 c 4
 27 -599 26 -602 12 -602 c 4
121 -85 m 4
 106 -91 90 -95 73 -95 c 4
 67 -95 56 -94 50 -94 c 4
 37 -94 27 -97 27 -116 c 6
 27 -363 l 6
 27 -384 30 -394 43 -394 c 4
 57 -394 77 -385 91 -374 c 4
 134 -340 172 -285 172 -196 c 4
 172 -159 167 -129 156 -94 c 4
 151 -79 141 -77 121 -85 c 4
EndSplineSet
Fore
SplineSet
121 -85 m 0
 106 -91 90 -95 73 -95 c 0
 67 -95 56 -94 50 -94 c 0
 37 -94 27 -97 27 -116 c 2
 27 -219 l 2
 27 -235 32 -239 46 -234 c 2
 142 -199 l 2
 168 -190 173 -184 170 -155 c 0
 167 -135 163 -115 156 -94 c 0
 151 -79 141 -77 121 -85 c 0
12 -602 m 0
 3 -602 0 -600 0 -589 c 2
 -0 -300 l 2
 0 -286 -4 -283 -20 -289 c 2
 -81 -311 l 2
 -93 -315 -94 -315 -99 -302 c 0
 -104 -288 -103 -288 -91 -284 c 2
 -23 -259 l 2
 -5 -253 0 -247 0 -227 c 2
 0 -27 l 2
 0 37 61 95 128 95 c 0
 167 95 202 68 202 26 c 0
 202 6 195 -14 184 -32 c 0
 174 -48 172 -57 178 -75 c 0
 185 -96 192 -123 197 -148 c 0
 202 -173 206 -176 226 -169 c 2
 280 -149 l 2
 291 -144 291 -145 296 -158 c 0
 300 -171 300 -172 289 -176 c 2
 228 -198 l 2
 206 -206 203 -207 200 -236 c 0
 181 -420 36 -458 29 -568 c 0
 27 -599 26 -602 12 -602 c 0
143 -229 m 2
 48 -264 l 2
 30 -270 27 -275 27 -296 c 2
 27 -363 l 2
 27 -384 30 -394 43 -394 c 0
 57 -394 77 -385 91 -374 c 0
 125 -347 156 -307 167 -248 c 0
 172 -222 168 -220 143 -229 c 2
EndSplineSet
EndChar

StartChar: aacute
Encoding: 225 225 68
Width: 202
Flags: HMW
LayerCount: 2
Back
SplineSet
289.184 -387.602 m 6
 301.21 -388.771 300.71 -389.638 298.54 -403.396 c 4
 295.504 -416.654 295.004 -417.521 283.478 -415.484 c 6
 -104.451 -347.398 l 6
 -116.844 -344.862 -117.71 -344.362 -115.54 -330.604 c 4
 -112.87 -315.979 -112.004 -316.479 -99.6113 -319.016 c 6
 289.184 -387.602 l 6
172 -125 m 4
 172 -111 169 -98 165 -85 c 4
 159 -71 150 -70 134 -79 c 4
 115 -89 94 -95 73 -95 c 4
 67 -95 56 -94 50 -94 c 4
 37 -94 27 -97 27 -116 c 6
 27 -245 l 5
 27 -266 30 -278 43 -278 c 4
 57 -278 79 -271 95 -262 c 4
 145 -235 172 -172 172 -125 c 4
29 -433 m 4
 29 -440 32 -449 45 -449 c 4
 59 -449 77 -443 92 -435 c 4
 139 -412 172 -358 172 -314 c 4
 172 -304 172 -295 171 -287 c 4
 167 -259 154 -266 142 -281 c 4
 129 -296 114 -310 100 -322 c 4
 60 -356 29 -389 29 -433 c 4
189 -196 m 4
 180 -222 183 -227 192 -256 c 4
 198 -274 202 -295 202 -312 c 4
 202 -381 162 -431 100 -490 c 4
 62 -525 29 -557 29 -599 c 4
 29 -618 26 -618 12 -618 c 4
 3 -618 0 -617 0 -605 c 6
 0 -27 l 6
 0 37 61 95 128 95 c 4
 167 95 202 68 202 26 c 4
 202 11 198 -5 192 -19 c 4
 184 -36 182 -43 189 -61 c 4
 196 -83 202 -106 202 -125 c 4
 202 -152 197 -171 189 -196 c 4
EndSplineSet
Fore
SplineSet
189 -196 m 0
 180 -222 183 -227 192 -256 c 0
 198 -274 202 -295 202 -312 c 0
 202 -324 201 -335 198 -346 c 0
 195 -364 193 -371 212 -374 c 2
 289 -388 l 2
 301 -389 301 -390 299 -403 c 0
 296 -417 295 -418 283 -415 c 2
 201 -401 l 2
 183 -398 177 -401 165 -418 c 0
 148 -442 126 -465 100 -490 c 0
 62 -525 29 -557 29 -599 c 0
 29 -618 26 -618 12 -618 c 0
 3 -618 0 -617 0 -605 c 2
 -0 -386 l 2
 0 -368 -8 -364 -29 -361 c 2
 -104 -347 l 2
 -117 -345 -118 -344 -116 -331 c 0
 -113 -316 -112 -316 -100 -319 c 2
 -27 -332 l 2
 -6 -336 0 -332 -0 -306 c 2
 0 -27 l 2
 0 37 61 95 128 95 c 0
 167 95 202 68 202 26 c 0
 202 11 198 -5 192 -19 c 0
 184 -36 182 -43 189 -61 c 1
 196 -83 202 -106 202 -125 c 0
 202 -152 197 -171 189 -196 c 0
29 -433 m 0
 29 -440 32 -449 45 -449 c 0
 59 -449 77 -443 92 -435 c 0
 104 -429 116 -421 126 -411 c 0
 140 -398 142 -391 117 -386 c 2
 79 -380 l 2
 53 -375 45 -376 36 -398 c 0
 31 -409 29 -421 29 -433 c 0
172 -125 m 0
 172 -111 169 -98 165 -85 c 1
 159 -71 150 -70 134 -79 c 0
 115 -89 94 -95 73 -95 c 0
 67 -95 56 -94 50 -94 c 0
 37 -94 27 -97 27 -116 c 2
 27 -245 l 2
 27 -266 30 -278 43 -278 c 0
 57 -278 79 -271 95 -262 c 0
 145 -235 172 -172 172 -125 c 0
102 -354 m 2
 133 -360 l 2
 156 -364 162 -361 167 -344 c 0
 170 -334 172 -324 172 -314 c 0
 172 -304 172 -295 171 -287 c 0
 167 -259 154 -266 142 -281 c 0
 129 -296 114 -310 100 -322 c 0
 78 -341 76 -350 102 -354 c 2
EndSplineSet
EndChar

StartChar: acircumflex
Encoding: 226 226 69
Width: 202
Flags: MW
LayerCount: 2
Back
SplineSet
283.796 -542.586 m 6
 295.822 -543.756 295.322 -544.622 293.152 -558.381 c 4
 290.116 -571.639 289.616 -572.505 278.09 -570.469 c 6
 -109.839 -502.383 l 6
 -122.231 -499.847 -123.098 -499.347 -120.928 -485.588 c 4
 -118.258 -470.964 -117.392 -471.464 -105 -474 c 6
 283.796 -542.586 l 6
172 -114 m 4
 172 -104 170 -94 167 -84 c 4
 163 -69 155 -66 138 -77 c 4
 118 -88 96 -95 73 -95 c 4
 67 -95 56 -94 50 -94 c 4
 37 -94 27 -97 27 -116 c 6
 27 -236 l 6
 27 -257 30 -269 43 -269 c 4
 57 -269 79 -262 95 -253 c 4
 145 -226 172 -180 172 -114 c 4
29 -590 m 4
 29 -597 32 -606 45 -606 c 4
 59 -606 77 -600 92 -592 c 4
 139 -569 172 -515 172 -471 c 4
 172 -462 172 -453 171 -445 c 4
 168 -423 157 -423 144 -435 c 4
 130 -449 116 -465 100 -481 c 4
 62 -516 29 -548 29 -590 c 4
29 -424 m 4
 29 -431 32 -440 45 -440 c 4
 59 -440 77 -434 92 -426 c 4
 139 -403 172 -349 172 -305 c 4
 172 -295 172 -286 171 -278 c 4
 167 -250 154 -257 142 -272 c 4
 129 -287 114 -301 100 -313 c 4
 60 -347 29 -380 29 -424 c 4
189 -186 m 4
 180 -213 183 -218 192 -247 c 4
 198 -265 202 -286 202 -303 c 4
 202 -324 199 -343 191 -363 c 4
 183 -382 186 -392 193 -416 c 4
 199 -434 202 -453 202 -469 c 4
 202 -538 162 -588 100 -647 c 4
 62 -682 29 -714 29 -756 c 4
 29 -775 26 -775 12 -775 c 4
 3 -775 0 -774 0 -762 c 6
 0 -27 l 6
 0 37 61 95 128 95 c 4
 167 95 202 68 202 26 c 4
 202 12 199 -2 194 -14 c 4
 186 -32 185 -42 191 -58 c 4
 198 -78 202 -98 202 -115 c 4
 202 -142 197 -161 189 -186 c 4
EndSplineSet
Fore
SplineSet
189 -186 m 0
 180 -213 183 -218 192 -247 c 0
 198 -265 202 -286 202 -303 c 0
 202 -324 199 -343 191 -363 c 0
 183 -382 186 -392 193 -416 c 0
 199 -434 202 -453 202 -469 c 0
 202 -482 201 -494 198 -506 c 0
 195 -521 196 -527 213 -530 c 2
 284 -543 l 2
 296 -544 295 -545 293 -558 c 0
 290 -572 290 -572 278 -570 c 2
 203 -557 l 2
 185 -554 178 -557 168 -571 c 0
 151 -596 128 -621 100 -647 c 0
 62 -682 29 -714 29 -756 c 0
 29 -775 26 -775 12 -775 c 0
 3 -775 0 -774 0 -762 c 2
 -0 -550 l 2
 0 -526 -8 -520 -33 -516 c 2
 -110 -502 l 2
 -122 -500 -123 -499 -121 -486 c 0
 -118 -471 -117 -471 -105 -474 c 2
 -34 -487 l 2
 -5 -492 0 -485 -0 -463 c 2
 0 -27 l 2
 0 37 61 95 128 95 c 0
 167 95 202 68 202 26 c 0
 202 12 199 -2 194 -14 c 0
 186 -32 185 -42 191 -58 c 0
 198 -78 202 -98 202 -115 c 0
 202 -142 197 -161 189 -186 c 0
29 -424 m 0
 29 -431 32 -440 45 -440 c 0
 59 -440 77 -434 92 -426 c 0
 139 -403 172 -349 172 -305 c 0
 172 -295 172 -286 171 -278 c 0
 167 -250 154 -257 142 -272 c 0
 129 -287 114 -301 100 -313 c 0
 60 -347 29 -380 29 -424 c 0
29 -590 m 0
 29 -597 32 -606 45 -606 c 0
 59 -606 77 -600 92 -592 c 0
 106 -585 119 -576 130 -564 c 0
 142 -552 141 -546 120 -543 c 2
 77 -535 l 2
 55 -531 49 -534 41 -546 c 0
 34 -560 29 -574 29 -590 c 0
172 -114 m 0
 172 -104 170 -94 167 -84 c 0
 163 -69 155 -66 138 -77 c 1
 118 -88 96 -95 73 -95 c 0
 67 -95 56 -94 50 -94 c 0
 37 -94 27 -97 27 -116 c 2
 27 -236 l 2
 27 -257 30 -269 43 -269 c 0
 57 -269 79 -262 95 -253 c 0
 145 -226 172 -180 172 -114 c 0
99 -510 m 2
 138 -517 l 2
 157 -520 164 -516 168 -497 c 0
 171 -488 172 -480 172 -471 c 0
 172 -462 172 -453 171 -445 c 0
 168 -423 157 -423 144 -435 c 0
 130 -449 117 -466 100 -481 c 0
 78 -501 81 -507 99 -510 c 2
EndSplineSet
EndChar

StartChar: atilde
Encoding: 227 227 70
Width: 202
Flags: HMW
LayerCount: 2
Back
SplineSet
289.795 -720.586 m 6
 301.821 -721.756 301.321 -722.622 299.151 -736.381 c 4
 296.115 -749.639 295.615 -750.505 284.089 -748.469 c 6
 -103.84 -680.383 l 6
 -116.232 -677.847 -117.099 -677.347 -114.929 -663.588 c 4
 -112.259 -648.964 -111.393 -649.464 -99 -652 c 6
 289.795 -720.586 l 6
172 -118 m 4
 172 -105 170 -93 166 -81 c 4
 161 -69 154 -67 137 -77 c 4
 118 -88 96 -95 73 -95 c 4
 67 -95 56 -94 50 -94 c 4
 37 -94 27 -97 27 -116 c 6
 27 -238 l 6
 27 -259 30 -271 43 -271 c 4
 57 -271 79 -264 95 -255 c 4
 145 -228 172 -173 172 -118 c 4
29 -768 m 4
 29 -775 32 -784 45 -784 c 4
 59 -784 77 -778 92 -770 c 4
 139 -747 172 -693 172 -649 c 4
 172 -640 172 -631 171 -623 c 4
 168 -601 157 -600 144 -613 c 4
 130 -627 116 -643 100 -659 c 4
 62 -694 29 -726 29 -768 c 4
29 -427 m 4
 29 -434 32 -443 45 -443 c 4
 59 -443 77 -437 92 -429 c 4
 139 -406 172 -352 172 -308 c 4
 172 -298 172 -289 171 -281 c 4
 167 -253 154 -260 142 -275 c 4
 129 -290 114 -304 100 -316 c 4
 60 -350 29 -383 29 -427 c 4
29 -593 m 4
 29 -600 32 -609 45 -609 c 4
 59 -609 77 -603 92 -595 c 4
 139 -572 172 -518 172 -474 c 4
 172 -465 172 -456 171 -448 c 4
 168 -426 157 -426 144 -438 c 4
 130 -452 116 -468 100 -484 c 4
 62 -519 29 -551 29 -593 c 4
189 -189 m 4
 180 -216 183 -221 192 -250 c 4
 198 -268 202 -289 202 -306 c 4
 202 -327 199 -346 191 -366 c 4
 183 -385 186 -395 193 -419 c 4
 199 -437 202 -456 202 -472 c 4
 202 -493 199 -513 191 -532 c 4
 183 -551 186 -561 193 -585 c 4
 199 -603 202 -622 202 -638 c 4
 202 -707 162 -757 100 -816 c 4
 62 -851 29 -883 29 -925 c 4
 29 -944 26 -944 12 -944 c 4
 3 -944 0 -943 0 -931 c 6
 0 -27 l 6
 0 37 61 95 128 95 c 4
 167 95 202 68 202 26 c 4
 202 12 199 -1 194 -14 c 4
 186 -32 184 -41 189 -56 c 4
 197 -77 202 -99 202 -118 c 4
 202 -145 197 -164 189 -189 c 4
EndSplineSet
Fore
SplineSet
189 -189 m 0
 180 -216 183 -221 192 -250 c 0
 198 -268 202 -289 202 -306 c 0
 202 -327 199 -346 191 -366 c 0
 183 -385 186 -395 193 -419 c 0
 199 -437 202 -456 202 -472 c 0
 202 -493 199 -513 191 -532 c 0
 183 -551 186 -561 193 -585 c 0
 199 -603 202 -622 202 -638 c 0
 202 -653 200 -667 197 -680 c 0
 192 -697 193 -703 210 -706 c 2
 290 -721 l 2
 302 -722 301 -723 299 -736 c 0
 296 -750 296 -750 284 -748 c 2
 198 -733 l 2
 178 -730 172 -735 161 -750 c 0
 145 -771 124 -793 100 -816 c 0
 62 -851 29 -883 29 -925 c 0
 29 -944 26 -944 12 -944 c 0
 3 -944 0 -943 0 -931 c 2
 -0 -724 l 2
 0 -703 -7 -697 -26 -694 c 2
 -104 -680 l 2
 -116 -678 -117 -677 -115 -664 c 0
 -112 -649 -111 -649 -99 -652 c 2
 -32 -664 l 2
 -3 -669 0 -659 0 -634 c 2
 0 -27 l 2
 0 37 61 95 128 95 c 0
 167 95 202 68 202 26 c 0
 202 12 199 -1 194 -14 c 0
 186 -32 184 -41 189 -56 c 0
 197 -77 202 -99 202 -118 c 0
 202 -145 197 -164 189 -189 c 0
29 -593 m 0
 29 -600 32 -609 45 -609 c 0
 59 -609 77 -603 92 -595 c 0
 139 -572 172 -518 172 -474 c 0
 172 -465 172 -456 171 -448 c 0
 168 -426 157 -426 144 -438 c 0
 130 -452 116 -468 100 -484 c 0
 62 -519 29 -551 29 -593 c 0
29 -427 m 0
 29 -434 32 -443 45 -443 c 0
 59 -443 77 -437 92 -429 c 0
 139 -406 172 -352 172 -308 c 0
 172 -298 172 -289 171 -281 c 0
 167 -253 154 -260 142 -275 c 0
 129 -290 114 -304 100 -316 c 0
 60 -350 29 -383 29 -427 c 0
29 -768 m 0
 29 -775 32 -784 45 -784 c 0
 59 -784 77 -778 92 -770 c 0
 106 -763 118 -754 129 -743 c 0
 143 -729 140 -723 120 -720 c 2
 78 -712 l 2
 55 -708 49 -711 40 -726 c 0
 33 -739 29 -753 29 -768 c 0
172 -118 m 0
 172 -105 170 -93 166 -81 c 0
 161 -69 154 -67 137 -77 c 0
 118 -88 96 -95 73 -95 c 0
 67 -95 56 -94 50 -94 c 0
 37 -94 27 -97 27 -116 c 2
 27 -238 l 2
 27 -259 30 -271 43 -271 c 0
 57 -271 79 -264 95 -255 c 0
 145 -228 172 -173 172 -118 c 0
102 -687 m 2
 137 -694 l 2
 156 -697 164 -694 168 -676 c 0
 171 -667 172 -658 172 -649 c 0
 172 -640 172 -631 171 -623 c 0
 168 -601 157 -600 144 -613 c 0
 130 -627 116 -643 100 -659 c 0
 81 -676 82 -684 102 -687 c 2
EndSplineSet
EndChar

StartChar: adieresis
Encoding: 228 228 71
Width: 202
Flags: HMW
LayerCount: 2
Back
SplineSet
286.795 -887.586 m 6
 298.821 -888.756 298.321 -889.622 296.151 -903.381 c 4
 293.115 -916.639 292.615 -917.505 281.089 -915.469 c 6
 -106.84 -847.383 l 6
 -119.232 -844.847 -120.099 -844.347 -117.929 -830.588 c 4
 -115.259 -815.964 -114.393 -816.464 -102 -819 c 6
 286.795 -887.586 l 6
172 -114 m 4
 172 -104 170 -93 167 -83 c 4
 163 -68 153 -68 137 -77 c 4
 118 -88 96 -95 73 -95 c 4
 67 -95 56 -94 50 -94 c 4
 37 -94 27 -97 27 -116 c 6
 27 -236 l 6
 27 -257 30 -269 43 -269 c 4
 57 -269 79 -262 95 -253 c 4
 145 -226 172 -181 172 -114 c 4
29 -935 m 4
 29 -942 32 -951 45 -951 c 4
 59 -951 77 -945 92 -937 c 4
 139 -914 172 -860 172 -816 c 4
 172 -807 172 -798 171 -790 c 4
 168 -768 158 -767 144 -780 c 4
 130 -794 116 -810 100 -826 c 4
 62 -861 29 -893 29 -935 c 4
29 -590 m 4
 29 -597 32 -606 45 -606 c 4
 59 -606 77 -600 92 -592 c 4
 139 -569 172 -515 172 -471 c 4
 172 -462 172 -453 171 -445 c 4
 168 -423 157 -423 144 -435 c 4
 130 -449 116 -465 100 -481 c 4
 62 -516 29 -548 29 -590 c 4
29 -424 m 4
 29 -431 32 -440 45 -440 c 4
 59 -440 77 -434 92 -426 c 4
 139 -403 172 -349 172 -305 c 4
 172 -295 172 -286 171 -278 c 4
 167 -250 154 -257 142 -272 c 4
 129 -287 114 -301 100 -313 c 4
 60 -347 29 -380 29 -424 c 4
29 -769 m 4
 29 -776 32 -785 45 -785 c 4
 59 -785 77 -779 92 -771 c 4
 139 -748 172 -694 172 -650 c 4
 172 -641 172 -632 171 -624 c 4
 168 -602 157 -601 144 -614 c 4
 130 -628 116 -644 100 -660 c 4
 62 -695 29 -727 29 -769 c 4
189 -186 m 4
 180 -213 183 -218 192 -247 c 4
 198 -265 202 -286 202 -303 c 4
 202 -324 199 -343 191 -363 c 4
 183 -382 186 -392 193 -416 c 4
 199 -434 202 -453 202 -469 c 4
 202 -490 199 -510 191 -529 c 4
 183 -548 186 -558 193 -582 c 4
 199 -600 202 -619 202 -635 c 4
 202 -656 198 -676 191 -695 c 4
 183 -714 186 -724 193 -748 c 4
 199 -766 202 -785 202 -801 c 4
 202 -870 162 -920 100 -979 c 4
 62 -1014 29 -1046 29 -1088 c 4
 29 -1107 26 -1107 12 -1107 c 4
 3 -1107 0 -1106 0 -1094 c 6
 0 -27 l 6
 0 37 61 95 128 95 c 4
 167 95 202 68 202 26 c 4
 202 12 199 -1 194 -14 c 4
 187 -31 185 -40 190 -55 c 4
 197 -76 202 -97 202 -115 c 4
 202 -142 197 -161 189 -186 c 4
EndSplineSet
Fore
SplineSet
189 -186 m 0
 180 -213 183 -218 192 -247 c 0
 198 -265 202 -286 202 -303 c 0
 202 -324 199 -343 191 -363 c 0
 183 -382 186 -392 193 -416 c 0
 199 -434 202 -453 202 -469 c 0
 202 -490 199 -510 191 -529 c 0
 183 -548 186 -558 193 -582 c 0
 199 -600 202 -619 202 -635 c 0
 202 -656 198 -676 191 -695 c 0
 183 -714 186 -724 193 -748 c 0
 199 -766 202 -785 202 -801 c 0
 202 -818 199 -835 195 -850 c 0
 190 -865 190 -871 205 -873 c 2
 287 -888 l 2
 299 -889 298 -890 296 -903 c 0
 293 -917 293 -917 281 -915 c 2
 192 -900 l 2
 176 -897 171 -899 162 -911 c 0
 146 -934 125 -956 100 -979 c 0
 62 -1014 29 -1046 29 -1088 c 0
 29 -1107 26 -1107 12 -1107 c 0
 3 -1107 0 -1106 0 -1094 c 2
 -0 -887 l 2
 0 -867 -5 -865 -25 -862 c 2
 -107 -847 l 2
 -119 -845 -120 -844 -118 -831 c 0
 -115 -816 -114 -816 -102 -819 c 2
 -29 -832 l 2
 -5 -836 0 -835 0 -801 c 2
 0 -27 l 2
 0 37 61 95 128 95 c 0
 167 95 202 68 202 26 c 0
 202 12 199 -1 194 -14 c 0
 187 -31 185 -40 190 -55 c 0
 197 -76 202 -97 202 -115 c 0
 202 -142 197 -161 189 -186 c 0
29 -769 m 0
 29 -776 32 -785 45 -785 c 0
 59 -785 77 -779 92 -771 c 0
 139 -748 172 -694 172 -650 c 0
 172 -641 172 -632 171 -624 c 0
 168 -602 157 -601 144 -614 c 0
 130 -628 116 -644 100 -660 c 0
 62 -695 29 -727 29 -769 c 0
29 -424 m 0
 29 -431 32 -440 45 -440 c 0
 59 -440 77 -434 92 -426 c 0
 139 -403 172 -349 172 -305 c 0
 172 -295 172 -286 171 -278 c 0
 167 -250 154 -257 142 -272 c 0
 129 -287 114 -301 100 -313 c 0
 60 -347 29 -380 29 -424 c 0
29 -590 m 0
 29 -597 32 -606 45 -606 c 0
 59 -606 77 -600 92 -592 c 0
 139 -569 172 -515 172 -471 c 0
 172 -462 172 -453 171 -445 c 0
 168 -423 157 -423 144 -435 c 0
 130 -449 116 -465 100 -481 c 0
 62 -516 29 -548 29 -590 c 0
29 -935 m 0
 29 -942 32 -951 45 -951 c 0
 59 -951 77 -945 92 -937 c 0
 106 -930 119 -920 131 -908 c 0
 141 -897 143 -891 124 -888 c 2
 78 -880 l 2
 55.001 -876 47 -880 40 -894 c 0
 33 -907 29 -920 29 -935 c 0
172 -114 m 0
 172 -104 170 -93 167 -83 c 0
 163 -68 153 -68 137 -77 c 0
 118 -88 96 -95 73 -95 c 0
 67 -95 56 -94 50 -94 c 0
 37 -94 27 -97 27 -116 c 2
 27 -236 l 2
 27 -257 30 -269 43 -269 c 0
 57 -269 79 -262 95 -253 c 0
 145 -226 172 -181 172 -114 c 0
103 -855 m 2
 138 -861 l 2
 157.138 -864.28 163 -861 168 -846 c 0
 170 -836 172 -826 172 -816 c 0
 172 -807 172 -798 171 -790 c 0
 168 -768 158 -767 144 -780 c 0
 130 -794 116 -810 100 -826 c 0
 79 -847 75 -850 103 -855 c 2
EndSplineSet
EndChar

StartChar: uni00AD
Encoding: 173 173 72
Width: 202
Flags: HW
LayerCount: 2
Fore
SplineSet
0 -26 m 0
 0 37 62 95 129 95 c 0
 135 95 146 94 152 94 c 0
 165 94 175 97 175 116 c 2
 175 714 l 2
 175 725 178 727 187 727 c 0
 201 727 202 724 204 693 c 0
 212 575 377 540 377 321 c 0
 377 274 358 207 344 176 c 1
 336 161 312 166 320 187 c 0
 338 237 347 273 347 321 c 0
 347 410 309 465 266 499 c 0
 252 510 232 519 218 519 c 0
 205 519 202 509 202 488 c 2
 202 27 l 2
 202 -37 141 -95 74 -95 c 0
 35 -95 0 -68 0 -26 c 0
EndSplineSet
EndChar

StartChar: at
Encoding: 64 64 73
Width: 282
Flags: W
VStem: 0 26<-185 -172.178 24.9267 75> 245 37<-585.294 -349.061>
LayerCount: 2
Fore
SplineSet
4 75 m 4
 22 75 l 0
 26 75 27 75 27 71 c 0
 31 31 50 -4 72 -31 c 0
 142 -118 282 -230 282 -446 c 0
 282 -544 249 -650 228 -693 c 0
 225 -698 224 -697 219 -696 c 0
 201 -687 l 0
 198 -684 197 -683 199 -677 c 0
 222 -618 245 -535 245 -456 c 0
 245 -370 217 -295 152 -233 c 0
 119 -202 66 -172 41 -172 c 0
 33 -172 26 -179 26 -185 c 0
 0 -185 l 0
 0 71 l 0
 0 74 0 75 4 75 c 4
EndSplineSet
EndChar

StartChar: R
Encoding: 82 82 74
Width: 292
Flags: HW
LayerCount: 2
Fore
SplineSet
0 -88 m 1
 0 120 l 25
 26 120 l 0
 26 114 33 108 42 108 c 0
 72 108 104 116 127 127 c 0
 213 168 259 242 259 315 c 0
 259 354 247 386 238 410 c 1
 262 435 l 1
 275 412 292 371 292 316 c 0
 292 198 209 109 128 49 c 0
 63 1 26 -40 26 -88 c 9
 0 -88 l 1
EndSplineSet
EndChar

StartChar: A
Encoding: 65 65 75
Width: 282
Flags: W
HStem: 42 20G<2 23.5>
VStem: 0 27<-351 -338.02 -188.476 -129.052 19.0703 62> 245 37<-703.297 -489.895 -399.919 -255.699>
LayerCount: 2
Fore
SplineSet
91 -353 m 0
 71 -344 53 -338 41 -338 c 0
 33 -338 26 -345 26 -351 c 0
 0 -351 l 1
 0 58 l 1
 0 61 0 62 4 62 c 4
 22 62 l 0
 25 62 27 62 27 58 c 0
 26 23 68 -20 130 -71 c 0
 217 -142 282 -223 282 -325 c 0
 282 -361 269 -408 251 -438 c 0
 271 -481 282 -528 282 -582 c 0
 282 -639 262 -727 238 -780 c 0
 235 -786 234 -785 229 -784 c 0
 211 -775 l 0
 208 -773 206 -771 209 -765 c 0
 226 -717 245 -650 245 -585 c 0
 245 -485 191 -397 91 -353 c 0
245 -330 m 0
 245 -229 158 -155 69 -133 c 0
 59 -130 49 -129 41 -129 c 0
 36 -129 27 -137 27 -146 c 0
 27 -150 l 0
 27 -188 72 -228 131 -282 c 0
 171 -318 205 -357 232 -401 c 0
 240 -378 246 -351 245 -330 c 0
EndSplineSet
EndChar

StartChar: b
Encoding: 98 98 76
Width: 275
Flags: HW
HStem: 99 21G<0 27>
VStem: 0 27<108 120 -88 -41> 242 33<234 398>
LayerCount: 2
Fore
SplineSet
0 -88 m 1
 0 120 l 25
 26 120 l 0
 26 114 33 108 42 108 c 0
 67 108 98 116 121 127 c 0
 207 168 242 242 242 315 c 0
 242 354 231 386 221 410 c 1
 245 435 l 1
 258 412 275 371 275 316 c 0
 275 198 205 112 126 49 c 0
 63 -1 26 -40 26 -88 c 9
 0 -88 l 1
EndSplineSet
EndChar

StartChar: r
Encoding: 114 114 77
Width: 258
Flags: HW
HStem: 99 21G<0 27>
VStem: 0 27<108 120 -88 -41> 242 33<234 398>
LayerCount: 2
Fore
SplineSet
0 -88 m 1
 0 120 l 25
 26 120 l 0
 26 114 33 108 42 108 c 0
 67 108 93 118 115 130 c 0
 203 177 225 242 225 315 c 0
 225 354 214 386 204 410 c 1
 228 435 l 1
 241 412 258 371 258 316 c 0
 258 193 196 121 119 50 c 0
 60 -5 26 -40 26 -88 c 9
 0 -88 l 1
EndSplineSet
EndChar

StartChar: uni0088
Encoding: 136 136 78
Width: 204
Flags: W
HStem: -7 20G<0 25>
VStem: 0 24<-191 -182.004 -48.4134 13> 174 30<-486.191 -306.96>
LayerCount: 2
Back
SplineSet
35 -165 m 4
 29 -165 24 -170 24 -174 c 4
 0 -174 l 4
 0 13 l 5
 25 13 l 5
 25 -13 36 -47 51 -66 c 4
 101 -130 204 -208 204 -358 c 4
 204 -429 177 -496 164 -520 c 5
 139 -508 l 5
 157 -471 174 -416 174 -357 c 4
 174 -276 134 -215 93 -186 c 4
 73 -172 57 -165 35 -165 c 4
EndSplineSet
Fore
SplineSet
35 -182 m 0
 29 -182 24 -187 24 -191 c 0
 0 -191 l 0
 0 13 l 1
 25 13 l 1
 25 -40 45 -80 82 -124 c 0
 142 -194 204 -267 204 -383 c 0
 204 -436 192 -480 178 -523 c 1
 151 -515 l 1
 162 -476 174 -441 174 -383 c 0
 174 -294 114 -207 51 -185 c 0
 45 -183 40 -182 35 -182 c 0
EndSplineSet
EndChar

StartChar: uni008B
Encoding: 139 139 79
Width: 318
Flags: HW
LayerCount: 2
Fore
SplineSet
86 99 m 0
 117 122 170 143 218 143 c 0
 227 143 236 142 245 141 c 0
 283 133 288 146 288 172 c 2
 288 862 l 2
 288 873 288 874 303 874 c 0
 317 874 318 874 318 860 c 2
 318 54 l 2
 318 -4 273 -68 234 -98 c 0
 203 -121 149 -143 100 -143 c 0
 67 -143 36 -133 17 -107 c 0
 5 -91 0 -73 0 -54 c 0
 0 4 47 69 86 99 c 0
EndSplineSet
EndChar

StartChar: uni008C
Encoding: 140 140 80
Width: 202
Flags: HW
LayerCount: 2
Fore
SplineSet
0 -26 m 0
 0 37 62 95 129 95 c 0
 135 95 146 94 152 94 c 0
 165 94 175 97 175 116 c 2
 175 590 l 2
 175 602 176 602 188 602 c 0
 202 602 202 601 202 589 c 2
 202 27 l 2
 202 -37 141 -95 74 -95 c 0
 35 -95 0 -68 0 -26 c 0
EndSplineSet
EndChar

StartChar: uni008D
Encoding: 141 141 81
Width: 202
Flags: HW
LayerCount: 2
Fore
SplineSet
202 26 m 0
 202 -37 140 -95 73 -95 c 0
 67 -95 56 -94 50 -94 c 0
 37 -94 27 -97 27 -116 c 2
 27 -590 l 2
 27 -602 26 -602 14 -602 c 0
 0 -602 0 -601 0 -589 c 2
 0 -27 l 2
 0 37 61 95 128 95 c 0
 167 95 202 68 202 26 c 0
EndSplineSet
EndChar

StartChar: uni008E
Encoding: 142 142 82
Width: 202
Flags: W
HStem: -7 20G<0 25>
VStem: 0 24<-191 -182.004 -48.4134 13> 174 30<-486.191 -306.96>
LayerCount: 2
Fore
SplineSet
0 -26 m 0
 0 37 62 95 129 95 c 0
 169.392 95 175 85.667 175 125 c 0
 175 568 l 0
 175 588 182 587 188 587 c 0
 206 587 199 566 206 530 c 0
 225.241 431.047 380 345 380 199 c 0
 380 146 370 90 360 64 c 0
 353 47 331 48 335 75 c 0
 343 116 349 142 349 186 c 0
 349 264 316.917 321.882 257 364 c 0
 239.977 375.967 202 392 202 360 c 0
 202 27 l 0
 202 -37 141 -95 74 -95 c 0
 35 -95 0 -68 0 -26 c 0
EndSplineSet
EndChar

StartChar: uni008F
Encoding: 143 143 83
Width: 202
Flags: HW
LayerCount: 2
Fore
SplineSet
0 -26 m 0
 0 37 62 95 129 95 c 0
 135 95 145 94 151 94 c 0
 164 94 175 97 175 116 c 0
 175 597 l 0
 175 609 181 609 187 609 c 0
 205 609 196 588 203 552 c 0
 222 453 371 378 371 241 c 0
 371 218 360 188 360 168 c 0
 360 159 361 150 365 137 c 0
 373 114 377 87 377 56 c 0
 377 16 367 -34 357 -60 c 0
 354 -67 348 -71 343 -71 c 0
 337 -71 332 -67 332 -57 c 0
 332 -55 332 -52 333 -49 c 0
 343 -1 348 14 348 52 c 0
 348 98 337 133 321 158 c 0
 299 192 257 221 222 221 c 0
 204 221 202 209 202 188 c 0
 202 27 l 0
 202 -37 141 -95 74 -95 c 0
 35 -95 0 -68 0 -26 c 0
207 354 m 0
 223 307 265 277 303 237 c 0
 309 231 320 223 328 223 c 0
 335 223 340 227 340 242 c 0
 340 294 314 344 254 386 c 0
 244 393 230 400 218 400 c 0
 206 400 202 392 202 383 c 0
 202 373 204 362 207 354 c 0
EndSplineSet
EndChar

StartChar: x
Encoding: 120 120 84
Width: 218
Flags: HW
LayerCount: 2
Fore
SplineSet
41 -203 m 4
 32 -203 25 -210 25 -216 c 4
 0 -216 l 0
 0 62 l 1
 26 62 l 5
 26 -12 87 -89 121 -142 c 0
 170 -219 218 -311 218 -468 c 0
 218 -574 193 -660 181 -698 c 1
 151 -688 l 1
 168 -632 184 -556 184 -467 c 0
 184 -365 155 -296 115 -245 c 0
 97 -223 68 -203 41 -203 c 4
EndSplineSet
EndChar

StartChar: y
Encoding: 121 121 85
Width: 218
Flags: HW
HStem: -773 21G<215 252.5> -140 20G<0 27>
VStem: 0 26<-330 -317.312 -158.771 -120> 259 33<-683.565 -476.74>
LayerCount: 2
Back
SplineSet
159 -764 m 5
 167 -725 185 -653 185 -566 c 4
 185 -477 170 -399 106 -353 c 4
 86 -338 61 -327 41 -327 c 4
 32 -327 25 -334 25 -340 c 4
 0 -340 l 4
 0 -100 l 5
 26 -100 l 5
 26 -130 62.0071934017 -190.574704341 101 -242 c 4
 170 -333 218 -423 218 -567 c 4
 218 -654 200 -738 188 -771 c 5
 159 -764 l 5
EndSplineSet
Fore
SplineSet
159 -759 m 1
 167 -720 185 -648 185 -561 c 0
 185 -472 170 -394 106 -348 c 0
 86 -333 61 -322 41 -322 c 0
 32 -322 25 -329 25 -335 c 0
 0 -335 l 0
 0 -100 l 1
 26 -100 l 1
 26 -130 62 -186 101 -237 c 0
 170 -328 218 -418 218 -562 c 0
 218 -649 200 -733 188 -766 c 1
 159 -759 l 1
EndSplineSet
EndChar

StartChar: z
Encoding: 122 122 86
Width: 218
Flags: HW
HStem: -120 21G<0 27>
VStem: 0 27<-120 -108.207 40.8781 88> 242 33<-398.246 -233.803>
LayerCount: 2
Fore
SplineSet
0 119 m 1
 26 119 l 1
 26 85 45 45 102 -12 c 0
 175 -86 218 -143 218 -247 c 0
 218 -309 192 -365 177 -387 c 1
 155 -360 l 1
 167 -337 185 -298 185 -246 c 0
 185 -184 159 -133 98 -99 c 0
 76 -87 58 -83 42 -83 c 0
 33 -83 26 -90 26 -100 c 0
 26 -100 11 -100 0 -100 c 25
 0 119 l 1
EndSplineSet
EndChar

StartChar: braceleft
Encoding: 123 123 87
Width: 218
Flags: HW
HStem: -120 21G<0 27>
VStem: 0 27<-120 -108.207 40.8781 88> 242 33<-398.246 -233.803>
LayerCount: 2
Fore
SplineSet
159 -759 m 1
 167 -720 185 -648 185 -561 c 0
 185 -472 170 -394 106 -348 c 0
 86 -333 61 -322 41 -322 c 0
 32 -322 25 -329 25 -335 c 1
 0 -335 l 1
 0 119 l 1
 26 119 l 1
 26 85 45 45 102 -12 c 0
 175 -86 218 -143 218 -247 c 0
 218 -300 199 -349 184 -376 c 1
 205 -429 218 -488 218 -562 c 0
 218 -649 200 -733 188 -766 c 1
 159 -759 l 1
26 -100 m 0
 26 -130 62 -186 101 -237 c 0
 126 -270 148 -302 166 -337 c 1
 176 -314 185 -284 185 -246 c 0
 185 -184 159 -133 98 -99 c 0
 76 -87 58 -83 42 -83 c 0
 33 -83 26 -90 26 -100 c 0
EndSplineSet
EndChar

StartChar: bar
Encoding: 124 124 88
Width: 218
Flags: HW
HStem: -120 21G<0 27>
VStem: 0 27<-120 -108.207 40.8781 88> 242 33<-398.246 -233.803>
LayerCount: 2
Back
SplineSet
214 -637 m 1
 182 -633 l 1025
EndSplineSet
Fore
SplineSet
181 -633 m 1
 181 -633 185 -593 185 -561 c 0
 185 -472 170 -394 106 -348 c 0
 86 -333 61 -322 41 -322 c 0
 32 -322 25 -329 25 -335 c 1
 0 -335 l 1
 0 119 l 1
 26 119 l 1
 26 85 45 45 102 -12 c 0
 175 -86 218 -143 218 -247 c 0
 218 -300 199 -349 184 -376 c 1
 205 -429 218 -488 218 -562 c 0
 218 -594 213 -637 213 -637 c 1
 181 -633 l 1
26 -100 m 0
 26 -130 62 -186 101 -237 c 0
 126 -270 148 -302 166 -337 c 1
 176 -314 185 -284 185 -246 c 0
 185 -184 159 -133 98 -99 c 0
 76 -87 58 -83 42 -83 c 0
 33 -83 26 -90 26 -100 c 0
EndSplineSet
EndChar

StartChar: braceright
Encoding: 125 125 89
Width: 218
Flags: HW
VStem: 0 26<-160 -147.312 18.5 75> 241 34<-500.351 -270.825>
LayerCount: 2
Back
SplineSet
208 -503 m 5
 214 -474 224 -422 224 -376 c 4
 224 -284 200 -222 135 -178 c 4
 106 -159 76 -147 42 -147 c 4
 33 -147 26 -154 26 -160 c 5
 0 -160 l 5
 0 75 l 5
 27 75 l 21
 27 33 47 -2 63 -20 c 4
 131 -99 258 -164 258 -377 c 4
 258 -428 245 -490 238 -512 c 5
 208 -503 l 5
EndSplineSet
Fore
SplineSet
168 -503 m 1
 174 -474 184 -422 184 -376 c 0
 184 -311 169 -255 143 -215 c 0
 122 -183 86 -152 41 -152 c 0
 32 -152 25 -159 25 -165 c 1
 0 -165 l 1
 0 75 l 1
 26 75 l 17
 26 33 49 -0 63 -20 c 0
 122 -106 218 -183 218 -377 c 0
 218 -428 205 -490 198 -512 c 1
 168 -503 l 1
EndSplineSet
EndChar

StartChar: uni0085
Encoding: 133 133 90
Width: 218
Flags: HW
VStem: 0 26<147 160 -75 -18> 241 34<271 500>
LayerCount: 2
Fore
SplineSet
168 503 m 1
 198 512 l 1
 205 490 218 428 218 377 c 0
 218 183 122 106 63 20 c 0
 49 0 26 -33 26 -75 c 9
 0 -75 l 1
 0 165 l 1
 25 165 l 1
 25 159 32 152 41 152 c 0
 86 152 122 183 143 215 c 0
 169 255 184 311 184 376 c 0
 184 422 174 474 168 503 c 1
EndSplineSet
EndChar

StartChar: backslash
Encoding: 92 92 91
Width: 275
Flags: HW
HStem: -120 21G<0 27>
VStem: 0 27<-120 -108.207 40.8781 88> 242 33<-398.246 -233.803>
LayerCount: 2
Back
SplineSet
255 -632 m 5
 255 -632 259 -605 259 -571 c 0
 259 -447 173 -322 41 -322 c 0
 32 -322 25 -329 25 -335 c 1
 0 -335 l 1
 0 88 l 1
 26 88 l 1
 26 40 63 -1 128 -49 c 0
 209 -109 292 -198 292 -316 c 0
 292 -366 278 -404 266 -428 c 1
 283 -470 292 -517 292 -572 c 0
 292 -604 286 -636 286 -636 c 5
 255 -632 l 5
26 -120 m 0
 26 -165 66 -209 130 -259 c 0
 178 -296 218 -338 246 -388 c 1
 253 -367 259 -343 259 -315 c 0
 259 -242 213 -168 127 -127 c 0
 104 -116 72 -108 42 -108 c 0
 33 -108 26 -114 26 -120 c 0
EndSplineSet
Fore
SplineSet
238 -632 m 1
 238 -632 242 -602 242 -571 c 0
 242 -448 171 -322 41 -322 c 0
 32 -322 25 -329 25 -335 c 1
 0 -335 l 1
 0 88 l 1
 26 88 l 1
 26 40 63 1 126 -49 c 0
 205 -112 275 -198 275 -316 c 0
 275 -362 263 -399 251 -423 c 1
 267 -466 275 -515 275 -572 c 0
 275 -603 269 -636 269 -636 c 5
 238 -632 l 1
26 -120 m 0
 26 -165 68 -214 126 -259 c 0
 172 -294 207 -334 232 -380 c 1
 238 -361 242 -339 242 -315 c 0
 242 -242 207 -168 121 -127 c 0
 98 -116 67 -108 42 -108 c 0
 33 -108 26 -114 26 -120 c 0
EndSplineSet
EndChar

StartChar: l
Encoding: 108 108 92
Width: 258
Flags: HW
HStem: -120 21G<0 27>
VStem: 0 27<-120 -108.207 40.8781 88> 242 33<-398.246 -233.803>
LayerCount: 2
Fore
SplineSet
221 -633 m 5
 221 -633 225 -603 225 -571 c 0
 225 -480 192 -392 127 -351 c 0
 94 -330 67 -322 41 -322 c 0
 32 -322 25 -329 25 -335 c 1
 0 -335 l 1
 0 88 l 1
 26 88 l 1
 26 40 60 5 119 -50 c 0
 196 -121 258 -193 258 -316 c 0
 258 -363 245 -400 234 -424 c 1
 249 -467 258 -515 258 -572 c 0
 258 -604 253 -637 253 -637 c 5
 221 -633 l 5
26 -120 m 0
 26 -165 70 -207 122 -259 c 0
 159 -295 191 -335 215 -381 c 1
 221 -362 225 -340 225 -315 c 0
 225 -242 203 -177 115 -130 c 0
 93 -118 67 -108 42 -108 c 0
 33 -108 26 -114 26 -120 c 0
EndSplineSet
EndChar

StartChar: t
Encoding: 116 116 93
Width: 258
Flags: HW
HStem: 99 21G<0 27>
VStem: 0 27<108 120 -88 -41> 242 33<234 398>
LayerCount: 2
Fore
SplineSet
221 633 m 5
 253 637 l 5
 253 637 258 604 258 572 c 0
 258 515 249 467 234 424 c 1
 245 400 258 363 258 316 c 0
 258 193 196 121 119 50 c 0
 60 -5 26 -40 26 -88 c 1
 0 -88 l 1
 0 335 l 1
 25 335 l 1
 25 329 32 322 41 322 c 0
 67 322 94 330 127 351 c 0
 192 392 225 480 225 571 c 0
 225 603 221 633 221 633 c 5
26 120 m 0
 26 114 33 108 42 108 c 0
 67 108 93 118 115 130 c 0
 203 177 225 242 225 315 c 0
 225 340 221 362 215 381 c 1
 191 335 159 295 122 259 c 0
 70 207 26 165 26 120 c 0
EndSplineSet
EndChar

StartChar: T
Encoding: 84 84 94
Width: 292
Flags: HW
LayerCount: 2
Fore
SplineSet
255 632 m 1
 286 636 l 1
 286 636 292 604 292 572 c 0
 292 517 283 470 266 428 c 1
 278 404 292 366 292 316 c 0
 292 198 209 109 128 49 c 0
 63 1 26 -40 26 -88 c 1
 0 -88 l 1
 0 335 l 1
 25 335 l 1
 25 329 32 322 41 322 c 0
 173 322 259 447 259 571 c 0
 259 605 255 632 255 632 c 1
26 120 m 0
 26 114 33 108 42 108 c 0
 72 108 104 116 127 127 c 0
 213 168 259 242 259 315 c 0
 259 343 253 367 246 388 c 1
 218 338 178 296 130 259 c 0
 66 209 26 165 26 120 c 0
EndSplineSet
EndChar

StartChar: d
Encoding: 100 100 95
Width: 275
Flags: HW
HStem: 99 21G<0 27>
VStem: 0 27<108 120 -88 -41> 242 33<234 398>
LayerCount: 2
Fore
SplineSet
238 632 m 1
 269 636 l 5
 269 636 275 603 275 572 c 0
 275 515 267 466 251 423 c 1
 263 399 275 362 275 316 c 0
 275 198 205 112 126 49 c 0
 63 -1 26 -40 26 -88 c 1
 0 -88 l 1
 0 335 l 1
 25 335 l 1
 25 329 32 322 41 322 c 0
 171 322 242 448 242 571 c 0
 242 602 238 632 238 632 c 1
26 120 m 0
 26 114 33 108 42 108 c 0
 67 108 98 116 121 127 c 0
 207 168 242 242 242 315 c 0
 242 339 238 361 232 380 c 1
 207 334 172 294 126 259 c 0
 68 214 26 165 26 120 c 0
EndSplineSet
EndChar

StartChar: uni0084
Encoding: 132 132 96
Width: 218
Flags: HW
HStem: 99 21G<0 27>
VStem: 0 27<108 120 -88 -41> 242 33<234 398>
LayerCount: 2
Fore
SplineSet
181 633 m 1
 213 637 l 1
 213 637 218 594 218 562 c 0
 218 488 205 429 184 376 c 1
 199 349 218 300 218 247 c 0
 218 143 175 86 102 12 c 0
 45 -45 26 -85 26 -119 c 1
 0 -119 l 1
 0 335 l 1
 25 335 l 1
 25 329 32 322 41 322 c 0
 61 322 86 333 106 348 c 0
 170 394 185 472 185 561 c 0
 185 593 181 633 181 633 c 1
26 100 m 0
 26 90 33 83 42 83 c 0
 58 83 76 87 98 99 c 0
 159 133 185 184 185 246 c 0
 185 284 176 314 166 337 c 1
 148 302 126 270 101 237 c 0
 62 186 26 130 26 100 c 0
EndSplineSet
EndChar
